**ABCDEFGHIJKLMNOPQRSTUVWXYZabcdefghijklmnopqrstuvwxyz**************************
**PARASOLID !"#$%&'()*+,-./:;<=>?@[\]^_`{|}~0123456789**************************
**PART1;
MC=unknown;
MC_MODEL=unknown;
MC_ID=unknown;
OS=unknown;
OS_RELEASE=unknown;
FRU=Parasolid 37.1.212;
APPL=Onshape;
SITE=unknown;
USER=unknown;
FORMAT=text;
GUISE=transmit;
KEY=BTGapi::writeModels_.xmt;
FILE=BTGapi::writeModels_.xmt;
DATE=2026-01-03T06:57:30 (UTC);
**PART2;
SCH=SCH_3701212_37102;
USFLD_SIZE=0;
**PART3;
**END_OF_HEADER*****************************************************************
T51 : TRANSMIT FILE created by modeller version 370121223 SCH_3701212_37102_1300
6239 0 12 36 CCCI7 lattice222 0 CCCI4 mesh1006 0 I8 polyline1008 0 CCCCCCCDI5 ow
ner1040 0 CCCI16 boundary_lattice222 0 CCCI13 boundary_mesh1006 0 I17 boundary_p
olyline1008 0 CCCA16 index_map_offset0 0 1 dA9 index_map82 0 A17 node_id_index_m
ap82 0 A20 schema_embedding_map82 0 A5 child12 0 A14 lowest_node_id0 0 1 dA16 me
sh_offset_data206 0 Z1 728 2 3 0 0 0 0 0 0 0 1e3 1e-8 0 4 5 1 0 1 2 6 0 7 8 9 0
 0 10 11 12 0 0 0 0 0 0 0 81 255 1 2 728 13 1 14 0 0 0 15 70 11 CI9 list_type0 0
 1 uI10 notransmit0 0 1 lCCCDCCDI12 finger_index0 0 1 dI12 finger_block1012 0 CZ
3 0 4 T1 0 0 3 20 1 16 16 13 255 6 305 0 1 0 17 0 0 18 0 51 255 7 295 0 17 19 0
 0 -0 .22098 .00762 0 0 -1 .001905 -1 0 0 31 255 8 450 0 20 21 0 0 +123599047663
3474e-32 .18923 0 0 0 1 1 0 0 .00189865 29 255 9 246 0 22 23 0 .00762 .11938 0 1
9 9 CCCCCCI5 frame230 0 CA5 owner12 0 Z10 104 0 1 18 0 24 0 V0 16 255 11 263 0 ?
25 0 27 30 0 0 1 18 255 12 98 0 29 0 26 28 ?1 17 255 29 0 34 35 32 12 33 31 0 38
 -18 26 93 0 40 12 36 39 ?1 29 28 100 0 12 39 37 .00762 .11938 .00762 29 39 95 0
 26 41 28 .00508 .10922 .00762 29 37 254 0 45 28 43 .00762 .22098 0 18 45 231 0
 25 42 0 37 ?1 29 43 253 0 42 37 44 -.00762 .22098 0 18 42 227 0 46 50 45 43 ?1
 29 44 252 0 50 43 48 -.00762 .11938 0 18 50 223 0 47 49 42 44 ?1 29 48 251 0 49
 44 51 -.00508 .10922 0 18 49 219 0 55 52 50 48 ?1 29 51 250 0 52 48 53 -.00508
 .0127 0 18 52 215 0 54 57 49 51 ?1 29 53 249 0 57 51 60 -1734723475976805e-33 -
1734723475976805e-33 0 18 57 211 0 59 56 52 53 ?1 29 60 248 0 56 53 23 .00508 .0
127 0 18 56 207 0 58 61 57 60 ?1 29 23 247 0 61 60 9 .00508 .10922 0 18 61 203 0
 62 22 56 23 ?1 17 62 0 34 32 35 61 40 64 0 63 +18 22 199 0 33 65 61 9 ?1 17 33
 0 67 70 38 22 29 31 0 69 +18 65 58 0 66 68 22 75 ?1 17 66 0 67 38 70 65 25 11 0
 71 -18 68 63 0 73 72 65 74 ?1 29 75 60 0 65 0 74 .00762 .22098 .00762 29 74 65
 0 68 75 76 -.00762 .22098 .00762 29 76 70 0 72 74 80 -.00762 .11938 .00762 18 7
2 68 0 77 78 68 76 ?1 29 80 75 0 78 76 79 -.00508 .10922 .00762 18 78 73 0 82 85
 72 80 ?1 29 79 80 0 85 80 84 -.00508 .0127 .00762 18 85 78 0 81 83 78 79 ?1 29
 84 85 0 83 79 41 -1734723475976805e-33 -1734723475976805e-33 .00762 18 83 83 0
 89 36 85 84 ?1 29 41 90 0 36 84 39 .00508 .0127 .00762 18 36 88 0 90 26 83 41 ?
1 17 90 0 87 88 86 36 58 93 0 95 -15 255 87 268 0 86 91 0 17 88 0 87 59 90 83 95
 94 0 0 +17 86 0 87 90 59 56 92 96 0 100 -17 58 0 98 63 97 56 90 93 0 86 +16 93
 257 0 ?58 99 64 101 0 0 1 17 95 0 105 103 89 36 88 94 0 97 -15 105 7 0 102 104
 0 17 103 0 105 106 95 26 97 110 0 35 -17 89 0 105 95 107 83 81 108 0 109 +16 94
 43 0 ?88 110 108 112 0 0 1 17 97 0 98 58 40 36 103 110 0 0 +15 98 266 0 63 115
 0 17 40 0 98 97 63 26 62 64 0 103 -16 110 48 0 ?97 114 94 111 0 0 1 16 114 53 0
 ?35 31 110 113 0 0 1 30 255 111 50 0 110 112 113 0 +.00508 .06096 .00762 0 -1 0
 30 112 45 0 94 116 111 0 +.00254 .00635 .00762 -.371390676354104 -.928476690885
259 0 30 113 55 0 114 111 117 0 +.00635 .1143 .00762 -.2425356250363315 -.970142
500145332 0 31 117 245 0 119 113 118 0 +0 .22098 0 0 0 1 1 0 0 .001905 16 119 19
5 0 ?120 122 20 117 0 0 1 30 118 244 0 122 117 125 0 +.00762 .17018 0 -332943974
227832e-30 -1 0 16 122 191 0 ?69 124 119 118 0 0 1 31 125 243 0 124 118 121 0 +0
 .22098 0 0 0 1 1 0 0 .00762 16 124 187 0 ?123 130 122 125 0 0 1 30 121 242 0 13
0 125 126 0 +-.00762 .17018 0 2731847993664265e-31 -1 0 16 130 183 0 ?128 127 12
4 121 0 0 1 30 126 241 0 127 121 129 0 +-.00635 .1143 0 .2425356250363315 -.9701
42500145332 0 16 127 179 0 ?131 135 130 126 0 0 1 30 129 240 0 135 126 132 0 +-.
00508 .06096 0 -332494657123611e-30 -1 0 16 135 175 0 ?133 134 127 129 0 0 1 30
 132 239 0 134 129 137 0 +-.00254 .00635 0 .371390676354104 -.928476690885259 0
 16 134 171 0 ?140 96 135 132 0 0 1 30 137 238 0 96 132 139 0 +.00254 .00635 0 -
.371390676354104 -.928476690885259 0 16 96 167 0 ?92 136 134 137 0 0 1 30 139 23
7 0 136 137 138 0 +.00508 .06096 0 0 -1 0 16 136 163 0 ?100 144 96 139 0 0 1 30
 138 236 0 144 139 145 0 +.00635 .1143 0 -.2425356250363315 -.970142500145332 0
 16 144 159 0 ?142 143 136 138 0 0 1 30 145 296 0 31 138 141 0 +.00762 .11938 .0
0762 0 0 -1 16 31 255 0 ?33 64 114 145 0 0 1 30 141 297 0 64 145 101 0 +.00508 .
10922 .00762 0 0 -1 16 64 256 0 ?62 93 31 141 0 0 1 30 101 298 0 93 141 148 0 +.
00508 .0127 .00762 0 0 -1 30 148 299 0 99 101 150 0 +-1734723475976805e-33 -1734
723475976805e-33 .00762 0 0 -1 16 99 258 0 ?59 146 93 148 0 0 1 30 150 300 0 146
 148 149 0 +-.00508 .0127 .00762 0 0 -1 16 146 259 0 ?147 151 99 150 0 0 1 30 14
9 301 0 151 150 155 0 +-.00508 .10922 .00762 0 0 -1 16 151 260 0 ?153 152 146 14
9 0 0 1 30 155 302 0 152 149 154 0 +-.00762 .11938 .00762 0 0 -1 16 152 261 0 ?1
56 27 151 155 0 0 1 30 154 303 0 27 155 30 0 +-.00762 .22098 .00762 0 0 -1 16 27
 262 0 ?160 11 152 154 0 0 1 30 30 304 0 11 154 21 0 +.00762 .22098 .00762 0 0 -
1 31 21 443 0 158 30 8 0 +0 .13335 0 0 0 1 1 0 0 .00189865 16 158 507 0 ?157 20
 159 21 0 0 1 17 157 0 161 157 157 0 165 158 0 0 +16 20 477 0 ?162 119 158 8 0 0
 1 16 159 513 0 ?163 158 164 167 0 0 1 17 163 0 170 163 163 0 169 159 0 0 +16 16
4 617 0 ?166 159 168 171 0 0 1 31 167 546 0 159 172 174 0 +0 .13335 .00762 0 0 1
 1 0 0 .00189865 31 172 698 0 173 175 167 0 +0 .22098 .00762 0 0 1 1 0 0 .002667
 30 174 15 0 143 167 177 0 +.00762 .17018 .00762 -332943974227832e-30 -1 0 16 14
3 13 0 ?38 180 144 174 0 0 1 31 177 20 0 180 174 179 0 +0 .22098 .00762 0 0 1 1
 0 0 .00762 16 180 18 0 ?176 178 143 177 0 0 1 30 179 25 0 178 177 185 0 +-.0076
2 .17018 .00762 2731847993664265e-31 -1 0 16 178 23 0 ?181 183 180 179 0 0 1 30
 185 30 0 183 179 182 0 +-.00635 .1143 .00762 .2425356250363315 -.97014250014533
2 0 16 183 28 0 ?184 186 178 185 0 0 1 30 182 35 0 186 185 116 0 +-.00508 .06096
 .00762 -332494657123611e-30 -1 0 16 186 33 0 ?107 108 183 182 0 0 1 30 116 40 0
 108 182 112 0 +-.00254 .00635 .00762 .371390676354104 -.928476690885259 0 16 10
8 38 0 ?89 94 186 116 0 0 1 17 107 0 105 89 184 85 82 186 0 190 +17 184 0 105 10
7 181 78 77 183 0 187 +17 82 0 188 153 190 78 107 186 0 184 -17 190 0 188 82 133
 85 147 146 0 0 -15 188 272 0 133 189 0 17 133 0 188 190 153 52 55 135 0 0 +17 1
47 0 192 140 81 52 190 146 0 133 +15 192 270 0 140 195 0 17 140 0 192 109 147 57
 54 134 0 92 +17 81 0 192 147 109 85 89 108 0 107 -17 109 0 192 81 140 83 59 99
 0 88 -17 59 0 87 86 88 57 109 99 0 140 +17 54 0 194 55 92 52 140 134 0 147 -17
 92 0 194 54 100 57 86 96 0 0 +15 194 158 0 69 191 0 17 100 0 194 92 142 56 63 1
36 0 0 +17 142 0 194 100 69 61 32 144 0 0 +17 63 0 98 40 58 61 100 136 0 142 -17
 69 0 194 142 193 22 70 122 0 32 +17 32 0 34 29 62 22 142 144 0 0 -15 34 264 0 3
2 199 0 14 255 199 265 0 ?104 115 34 6 200 +0 0 104 115 24 14 104 1 0 ?191 199 1
97 6 198 +0 0 191 199 24 14 115 267 0 ?199 91 98 6 196 +0 0 199 91 24 50 255 200
 286 0 199 203 196 0 +.00635 .1143 .00762 .970142500145332 -.2425356250363315 0
 .2425356250363315 .970142500145332 0 13 24 105 0 0 0 0 0 0 10 17 14 17 283 0 ?2
05 0 201 6 7 +0 0 205 0 24 14 205 493 0 ?204 17 202 6 206 -0 0 204 17 24 15 201
 284 0 210 17 208 17 210 0 201 210 210 0 120 119 0 0 -15 208 590 0 207 17 0 17 2
07 0 208 207 207 0 209 211 0 0 +17 209 0 215 209 209 0 207 211 0 0 -16 211 656 0
 ?207 213 173 212 0 0 1 16 213 653 0 ?214 216 211 175 0 0 1 16 173 661 0 ?220 21
1 0 172 0 0 1 31 212 701 0 211 217 175 0 +0 .22098 .00508 0 0 1 1 0 0 .001905 31
 217 703 0 216 171 212 0 +1257674520083184e-32 .18923 .00762 0 0 1 1 0 0 .002667
 31 175 700 0 213 212 172 0 +0 .22098 .00508 0 0 1 1 0 0 .002667 16 216 622 0 ?2
18 168 213 217 0 0 1 31 171 704 0 164 219 217 0 +1235990476633474e-32 .18923 .00
508 0 0 1 1 0 0 .00189865 31 219 705 0 168 0 171 0 +1257674520083184e-32 .18923
 .00508 0 0 1 1 0 0 .002667 16 168 614 0 ?222 164 216 219 0 0 1 17 222 0 225 222
 222 0 224 168 0 0 +15 225 641 0 222 221 0 17 224 0 223 224 224 0 222 168 0 0 -1
5 223 635 0 224 226 227 14 226 632 0 ?221 229 223 6 228 -0 0 221 229 24 15 227 6
36 0 218 226 0 17 218 0 227 218 218 0 230 216 0 0 +17 230 0 197 230 230 0 218 21
6 0 0 -15 197 584 0 230 104 232 15 232 577 0 235 104 234 17 235 0 232 235 235 0
 220 173 0 0 -15 234 456 0 169 104 105 17 169 0 234 169 169 0 163 159 0 0 -17 22
0 0 231 220 220 0 235 173 0 0 +15 231 675 0 220 233 0 14 233 671 0 ?240 221 236
 6 238 -0 0 240 221 24 14 240 676 0 ?0 233 215 6 237 +0 0 0 233 24 14 221 637 0
 ?233 226 239 6 241 +0 0 233 226 24 15 236 674 0 245 233 231 51 238 691 0 233 23
7 206 0 +0 .22098 .00508 0 0 1 .002667 1 0 0 50 237 693 0 240 228 238 0 +6938893
90390723e-32 .1143 .00508 0 0 1 1 0 0 51 206 543 0 205 238 242 0 +12359904766334
74e-32 .18923 -.01778 0 0 1 .00189865 1 0 0 51 242 540 0 229 206 198 0 +0 .13335
 -.01778 0 0 1 .00189865 1 0 0 14 229 523 0 ?226 191 170 6 242 -0 0 226 191 24 5
0 198 3 0 104 242 203 0 +693889390390723e-32 .1143 .00762 0 0 1 1 0 0 50 203 235
 0 191 198 200 0 +693889390390723e-32 .1143 0 0 0 1 1 0 0 14 191 144 0 ?229 104
 243 6 203 -0 0 229 104 24 15 243 448 0 162 191 161 17 162 0 243 162 162 0 244 2
0 0 0 +15 161 441 0 157 191 247 15 247 157 0 120 191 194 17 120 0 247 120 120 0
 210 119 0 0 +17 244 0 202 244 244 0 162 20 0 0 -15 202 492 0 244 205 250 15 250
 570 0 166 205 0 17 166 0 250 166 166 0 249 164 0 0 +17 249 0 239 249 249 0 166
 164 0 0 -15 239 640 0 249 221 225 15 170 521 0 163 229 246 15 246 522 0 165 229
 0 17 165 0 246 165 165 0 157 158 0 0 -51 228 694 0 226 241 237 0 +1257674520083
184e-32 .18923 .00508 0 0 1 .002667 1 0 0 50 241 697 0 221 0 228 0 +693889390390
723e-32 .1143 .00508 0 0 1 1 0 0 17 245 0 236 245 245 0 214 213 0 0 -17 214 0 24
8 214 214 0 245 213 0 0 +15 248 680 0 214 240 0 15 215 679 0 209 240 248 14 204
 281 0 ?254 205 67 6 19 +0 0 254 205 24 14 254 279 0 ?255 204 252 6 253 -0 0 255
 204 24 15 67 280 0 70 204 0 50 19 294 0 204 253 7 0 +.00762 .17018 .00762 1 -33
2943974227832e-30 0 332943974227832e-30 1 0 51 253 293 0 254 251 19 0 -0 .22098
 .00762 0 0 -1 .00762 -1 0 0 50 251 292 0 255 258 253 0 +-.00762 .17018 .00762 1
 2731847993664265e-31 0 -2731847993664265e-31 1 0 14 255 277 0 ?260 254 256 6 25
1 -0 0 260 254 24 50 258 291 0 260 259 251 0 +-.00635 .1143 .00762 .970142500145
332 .2425356250363315 0 -.2425356250363315 .970142500145332 0 14 260 275 0 ?189
 255 257 6 258 -0 0 189 255 24 50 259 290 0 189 261 258 0 +-.00508 .06096 .00762
 1 -332494657123611e-30 0 332494657123611e-30 1 0 14 189 273 0 ?195 260 188 6 25
9 -0 0 195 260 24 50 261 289 0 195 265 259 0 +-.00254 .00635 .00762 .92847669088
5259 .3713906763541035 0 -.3713906763541035 .928476690885259 0 14 195 271 0 ?91
 189 192 6 261 -0 0 91 189 24 50 265 288 0 91 196 261 0 +.00254 .00635 .00762 .9
28476690885259 -.371390676354104 0 .371390676354104 .928476690885259 0 14 91 269
 0 ?115 195 87 6 265 +0 0 115 195 24 50 196 287 0 115 200 265 0 +.00508 .06096 .
00762 1 0 0 0 0 -1 15 257 274 0 131 260 0 17 131 0 257 187 156 49 47 127 0 0 +17
 187 0 257 77 131 78 153 151 0 0 -17 156 0 257 131 77 50 263 152 0 128 +17 47 0
 194 46 55 50 131 127 0 156 -17 46 0 194 193 47 42 128 130 0 160 -17 55 0 194 47
 54 49 133 135 0 153 -17 153 0 188 133 82 49 187 151 0 131 +17 193 0 194 69 46 4
5 123 124 0 70 -17 128 0 256 263 160 50 46 130 0 0 +17 160 0 256 128 73 42 262 2
7 0 123 +15 256 276 0 128 255 0 17 73 0 256 160 263 68 181 178 0 176 -17 262 0 2
52 71 123 68 160 27 0 0 -17 123 0 252 262 25 42 193 124 0 0 +15 252 278 0 123 25
4 0 17 25 0 252 123 71 45 66 11 0 193 +17 71 0 252 25 262 65 176 180 0 102 -17 1
76 0 105 181 102 68 71 180 0 262 +17 102 0 105 176 106 65 38 143 0 0 -17 106 0 1
05 102 103 12 35 114 0 0 -17 38 0 67 33 66 12 102 143 0 106 +17 35 0 34 62 29 26
 106 114 0 0 +17 181 0 105 184 176 72 73 178 0 263 +17 263 0 256 73 128 72 156 1
52 0 0 -17 70 0 67 66 33 45 69 122 0 0 -17 77 0 257 156 187 72 184 183 0 181 -19
 18 306 0 1 0 10 6 0 S0 74 4 CI16 index_map_offset0 0 1 dCCZ20 16 3 0 0 264 14 2
 0 0 0 0 0 0 0 0 0 0 0 0 0 0 0 0 0 81 1 264 726 266 1 0 14 0 0 270 81 1 14 727 2
68 1 264 2 0 0 267 80 7 CCCCCDI12 legal_owners0 17 1 lCZ1 268 13 269 8038 0 0 0
 0 0 0 0 0 0 TTTTTTTTTTTTTFTFT10 98 255 6 267 80 97 114 116 32 50 79 255 14 269
 SDL/TYSA_UNAME80 1 266 271 275 8040 0 0 0 0 3 5 0 0 0 TTTFFFFFFFFFFFFFF2 83 255
 3 270 .615686274509804 .811764705882353 .929411764705882 79 17 275 SDL/TYSA_COL
OUR_280 1 13 272 273 8017 0 0 0 0 0 0 0 0 0 TTTTTTTTTTTTTFTFT3 84 255 6 15 Part
 279 13 273 SDL/TYSA_NAME1 0 
