**ABCDEFGHIJKLMNOPQRSTUVWXYZabcdefghijklmnopqrstuvwxyz**************************
**PARASOLID !"#$%&'()*+,-./:;<=>?@[\]^_`{|}~0123456789**************************
**PART1;
MC=unknown;
MC_MODEL=unknown;
MC_ID=unknown;
OS=unknown;
OS_RELEASE=unknown;
FRU=Parasolid 37.1.212;
APPL=Onshape;
SITE=unknown;
USER=unknown;
FORMAT=text;
GUISE=transmit;
KEY=BTGapi::writeModels_.xmt;
FILE=BTGapi::writeModels_.xmt;
DATE=2026-01-03T06:57:30 (UTC);
**PART2;
SCH=SCH_3701212_37102;
USFLD_SIZE=0;
**PART3;
**END_OF_HEADER*****************************************************************
T51 : TRANSMIT FILE created by modeller version 370121223 SCH_3701212_37102_1300
6239 0 12 36 CCCI7 lattice222 0 CCCI4 mesh1006 0 I8 polyline1008 0 CCCCCCCDI5 ow
ner1040 0 CCCI16 boundary_lattice222 0 CCCI13 boundary_mesh1006 0 I17 boundary_p
olyline1008 0 CCCA16 index_map_offset0 0 1 dA9 index_map82 0 A17 node_id_index_m
ap82 0 A20 schema_embedding_map82 0 A5 child12 0 A14 lowest_node_id0 0 1 dA16 me
sh_offset_data206 0 Z1 448 2 3 0 0 0 0 0 0 0 1e3 1e-8 0 4 5 1 0 1 2 6 0 7 8 9 0
 0 10 11 12 0 0 0 0 0 0 0 81 255 1 2 448 13 1 14 0 0 0 15 70 11 CI9 list_type0 0
 1 uI10 notransmit0 0 1 lCCCDCCDI12 finger_index0 0 1 dI12 finger_block1012 0 CZ
3 0 4 T1 0 0 3 20 1 16 16 13 255 6 224 0 1 0 17 0 0 18 0 50 255 7 216 0 17 19 0
 0 +1244313388719056e-33 -.0127 .00127 -1 0 -183697019872103e-30 -18369701987210
3e-30 0 1 30 255 8 223 0 11 20 0 0 +1477608603956628e-33 -.0127 0 0 1 0 29 255 9
 182 0 21 22 0 1734723475976805e-33 0 .00254 19 9 CCCCCCI5 frame230 0 CA5 owner1
2 0 Z10 78 0 1 18 0 23 0 V0 16 255 11 195 0 ?24 0 25 8 0 0 1 18 255 12 72 0 27 0
 30 29 ?1 17 255 27 0 26 28 34 12 35 32 0 33 -18 30 67 0 31 12 38 40 ?1 29 29 74
 0 12 40 36 1734723475976805e-33 -.0127 .00254 29 40 69 0 30 39 29 .066675 -.012
7 .00254 29 36 188 0 37 29 41 1477608603956628e-33 0 0 18 37 170 0 24 45 0 36 ?1
 29 41 187 0 45 36 43 .066675 0 3729655473350135e-32 18 45 166 0 42 44 37 41 ?1
 29 43 186 0 44 41 46 .0690618192567962 0 .001671268835952795 18 44 162 0 50 48
 45 43 ?1 29 46 185 0 48 43 47 .0728625180995027 0 .0121136030844362 18 48 158 0
 49 51 44 46 ?1 29 47 184 0 51 46 22 .0704756988427065 0 .01298233424848342 18 5
1 154 0 55 52 48 47 ?1 29 22 183 0 52 47 9 .066675 0 .00254 18 52 150 0 53 21 51
 22 ?1 17 53 0 26 34 28 52 31 54 0 57 +18 21 146 0 35 60 52 9 ?1 17 35 0 59 56 3
3 21 27 32 0 58 +18 60 42 0 61 62 21 64 ?1 17 61 0 59 33 56 60 24 11 0 63 -18 62
 47 0 65 66 60 70 ?1 29 64 44 0 60 0 70 1477608603956628e-33 -.0127 0 29 70 49 0
 62 64 68 .066675 -.0127 3729655473350135e-32 29 68 54 0 66 70 67 .0690618192567
962 -.0127 .001671268835952795 18 66 52 0 69 75 62 68 ?1 29 67 59 0 75 68 39 .07
28625180995027 -.0127 .0121136030844362 18 75 57 0 71 38 66 67 ?1 29 39 64 0 38
 67 40 .0704756988427065 -.0127 .01298233424848342 18 38 62 0 73 30 75 39 ?1 17
 73 0 72 74 76 38 55 80 0 77 -15 255 72 200 0 76 78 0 17 74 0 72 49 73 75 77 79
 0 0 +17 76 0 72 73 49 51 81 85 0 83 -17 55 0 82 57 84 51 73 80 0 76 +16 80 191
 0 ?55 89 54 90 0 0 1 17 77 0 87 88 71 38 74 79 0 84 -15 87 6 0 86 93 0 17 88 0
 87 95 77 30 84 91 0 28 -17 71 0 87 77 69 75 94 92 0 96 +16 79 27 0 ?74 91 92 10
0 0 0 1 17 84 0 82 55 31 38 88 91 0 0 +15 82 198 0 57 98 0 17 31 0 82 84 57 30 5
3 54 0 88 -16 91 32 0 ?84 97 79 99 0 0 1 16 97 37 0 ?28 32 91 101 0 0 1 30 99 34
 0 91 100 101 0 +.0685753494213533 -.0127 .00776116712424172 .3420201433256685 0
 .939692620785909 30 100 29 0 79 105 99 0 +.0716691084711046 -.0127 .01254796866
64598 .939692620785908 0 -.342020143325671 30 101 39 0 97 99 103 0 +.0333375 -.0
127 .00254 1 0 0 30 103 181 0 102 101 104 0 +1244313388719056e-33 0 .00127 -1836
97019872103e-30 0 1 16 102 142 0 ?58 106 110 103 0 0 1 30 104 180 0 106 103 107
 0 +.0333375 0 0 1 0 0 16 106 138 0 ?42 108 102 104 0 0 1 31 255 107 179 0 108 1
04 109 0 +.066675 0 .00254 0 -1 0 0 0 -1 .002539999999999965 16 108 134 0 ?50 11
2 106 107 0 0 1 30 109 178 0 112 107 115 0 +.0709621686781495 0 .006892435960194
51 .3420201433256685 0 .939692620785909 16 112 130 0 ?114 85 108 109 0 0 1 30 11
5 177 0 85 109 111 0 +.0716691084711046 0 .0125479686664598 .939692620785908 0 -
.342020143325671 16 85 126 0 ?81 113 112 115 0 0 1 30 111 176 0 113 115 116 0 +.
0685753494213533 0 .00776116712424172 .3420201433256685 0 .939692620785909 16 11
3 122 0 ?83 117 85 111 0 0 1 30 116 175 0 117 111 119 0 +.0333375 0 .00254 1 0 0
 16 117 118 0 ?118 120 113 116 0 0 1 30 119 217 0 32 116 121 0 +1734723475976805
e-33 -.0127 .00254 0 1 0 16 32 189 0 ?35 54 97 119 0 0 1 30 121 218 0 54 119 90
 0 +.066675 -.0127 .00254 0 1 0 16 54 190 0 ?53 80 32 121 0 0 1 30 90 219 0 80 1
21 125 0 +.0704756988427065 -.0127 .01298233424848342 0 1 0 30 125 220 0 89 90 1
23 0 +.0728625180995027 -.0127 .0121136030844362 0 1 0 16 89 192 0 ?49 122 80 12
5 0 0 1 30 123 221 0 122 125 20 0 +.0690618192567962 -.0127 .001671268835952795
 0 1 0 16 122 193 0 ?124 25 89 123 0 0 1 30 20 222 0 25 123 8 0 +.066675 -.0127
 3729655473350135e-32 0 1 0 16 25 194 0 ?130 11 122 20 0 0 1 17 130 0 126 50 128
 45 127 25 0 129 +15 126 204 0 50 131 0 17 50 0 126 135 130 44 129 108 0 124 +17
 128 0 126 130 135 62 69 132 0 0 -17 127 0 133 63 42 62 130 25 0 128 -17 129 0 1
34 136 140 45 50 108 0 0 -15 134 117 0 58 138 0 17 136 0 134 58 129 37 42 106 0
 56 -17 140 0 134 129 81 44 114 112 0 0 -17 81 0 134 140 83 48 76 85 0 0 +17 114
 0 137 96 124 48 140 112 0 81 +15 137 202 0 114 139 0 17 96 0 137 94 114 75 49 8
9 0 74 -17 124 0 137 114 94 44 135 122 0 140 +17 94 0 137 124 96 66 71 92 0 0 -1
7 135 0 126 128 50 66 124 122 0 94 -16 92 22 0 ?71 79 132 105 0 0 1 16 132 17 0
 ?69 92 144 145 0 0 1 30 105 24 0 92 145 100 0 +.0709621686781495 -.0127 .006892
43596019451 .3420201433256685 0 .939692620785909 31 145 19 0 132 142 105 0 +.066
675 -.0127 .00254 0 -1 0 0 0 -1 .002539999999999965 30 142 14 0 144 143 145 0 +.
0333375 -.0127 0 1 0 0 16 144 12 0 ?65 132 120 142 0 0 1 30 143 9 0 120 141 142
 0 +1244313388719056e-33 -.0127 .00127 -183697019872103e-30 0 1 16 120 7 0 ?33 1
44 117 143 0 0 1 31 141 429 0 110 148 143 0 +.003175 -.00635 -3469446951953615e-
33 0 0 1 1 0 0 .00189865 16 110 360 0 ?150 102 146 141 0 0 1 31 148 430 0 146 14
9 141 0 +.015875 -.00635 -3469446951953615e-33 0 0 1 1 0 0 .00189865 16 146 390
 0 ?147 110 151 148 0 0 1 31 149 431 0 155 153 148 0 +.015875 -.00635 .00254 0 0
 1 1 0 0 .00189865 16 155 396 0 ?152 151 0 149 0 0 1 31 153 433 0 151 0 149 0 +.
003175 -.00635 .00254 0 0 1 1 0 0 .00189865 16 151 366 0 ?154 146 155 153 0 0 1
 17 154 0 156 154 154 0 160 151 0 0 +15 156 374 0 154 158 157 17 160 0 159 160 1
60 0 154 151 0 0 -15 159 334 0 160 161 165 14 255 161 197 0 ?93 98 159 6 162 +0
 0 93 98 23 15 165 327 0 163 161 26 17 163 0 165 163 163 0 152 155 0 0 -15 26 19
6 0 34 161 0 17 34 0 26 27 53 21 118 117 0 0 -17 118 0 134 83 58 52 34 117 0 0 +
17 83 0 134 81 118 51 57 113 0 0 +17 58 0 134 118 136 21 56 102 0 34 +17 56 0 59
 61 35 37 58 102 0 0 -15 59 208 0 56 17 0 14 17 209 0 ?164 0 59 6 7 +0 0 164 0 2
3 14 164 207 0 ?131 17 167 6 19 -0 0 131 17 23 13 23 79 0 0 0 0 0 0 10 17 14 131
 205 0 ?139 164 126 6 170 -0 0 139 164 23 15 167 346 0 150 164 169 50 19 215 0 1
64 170 7 0 +.0333375 -.0127 0 0 0 1 1 0 0 51 255 170 214 0 131 166 19 0 -.066675
 -.0127 .00254 0 1 0 .002539999999999965 0 0 1 50 166 213 0 139 168 170 0 +.0709
621686781495 -.0127 .00689243596019451 -.939692620785909 0 .3420201433256685 .34
20201433256685 0 .939692620785909 14 139 203 0 ?78 131 137 6 166 -0 0 78 131 23
 50 168 212 0 78 171 166 0 +.0716691084711046 -.0127 .0125479686664598 .34202014
3325671 0 .939692620785907 .939692620785908 0 -.3420201433256715 14 78 201 0 ?98
 139 72 6 168 +0 0 98 139 23 50 171 211 0 98 162 168 0 +.0685753494213533 -.0127
 .00776116712424172 -.939692620785909 0 .3420201433256685 .3420201433256685 0 .9
39692620785909 14 98 199 0 ?161 78 82 6 171 +0 0 161 78 23 50 162 210 0 161 172
 171 0 +.0333375 -.0127 .00254 0 0 1 1 0 0 50 172 174 0 138 174 162 0 +.03643125
904975135 0 .00649116712424171 0 -1 0 1 0 0 14 138 107 0 ?173 93 134 6 172 -0 0
 173 93 23 50 174 3 0 93 175 172 0 +.03643125904975135 -.0127 .00649116712424171
 0 -1 0 1 0 0 14 93 1 0 ?138 161 87 6 174 +0 0 138 161 23 51 175 423 0 173 176 1
74 0 +.015875 -.00635 -.02286 0 0 1 .00189865 1 0 0 14 173 406 0 ?158 138 180 6
 175 -0 0 158 138 23 51 176 426 0 158 0 175 0 +.003175 -.00635 -.02286 0 0 1 .00
189865 1 0 0 14 158 376 0 ?0 173 156 6 176 -0 0 0 173 23 15 180 404 0 152 173 17
8 17 152 0 180 152 152 0 163 155 0 0 +15 178 405 0 177 173 0 17 177 0 178 177 17
7 0 147 146 0 0 -17 147 0 169 147 147 0 177 146 0 0 +15 169 340 0 147 164 133 15
 133 206 0 42 164 0 17 42 0 133 127 24 45 136 106 0 130 +17 24 0 133 42 63 37 61
 11 0 136 +17 63 0 133 24 127 60 65 144 0 86 -17 65 0 87 69 86 62 63 144 0 127 +
17 86 0 87 65 95 60 33 120 0 0 -17 95 0 87 86 88 12 28 97 0 0 -17 33 0 59 35 61
 12 86 120 0 95 +17 28 0 26 53 27 30 95 97 0 0 +17 69 0 87 71 65 66 128 132 0 13
5 +17 150 0 167 150 150 0 179 110 0 0 +17 179 0 157 179 179 0 150 110 0 0 -15 15
7 375 0 179 158 0 17 57 0 82 31 55 52 83 113 0 118 -17 49 0 72 76 74 48 96 89 0
 114 +19 18 225 0 1 0 10 6 0 S0 74 4 CI16 index_map_offset0 0 1 dCCZ20 16 3 0 0
 185 14 2 0 0 0 0 0 0 0 0 0 0 0 0 0 0 0 0 0 81 1 185 446 181 1 0 14 0 0 183 81 1
 14 447 182 1 185 2 0 0 184 80 7 CCCCCDI12 legal_owners0 17 1 lCZ1 182 13 186 80
38 0 0 0 0 0 0 0 0 0 TTTTTTTTTTTTTFTFT10 98 255 6 184 80 97 114 116 32 50 79 255
 14 186 SDL/TYSA_UNAME80 1 181 190 187 8040 0 0 0 0 3 5 0 0 0 TTTFFFFFFFFFFFFFF2
 83 255 3 183 .615686274509804 .811764705882353 .929411764705882 79 17 187 SDL/T
YSA_COLOUR_280 1 13 188 189 8017 0 0 0 0 0 0 0 0 0 TTTTTTTTTTTTTFTFT3 84 255 6 1
5 Part 279 13 189 SDL/TYSA_NAME1 0 
