**ABCDEFGHIJKLMNOPQRSTUVWXYZabcdefghijklmnopqrstuvwxyz**************************
**PARASOLID !"#$%&'()*+,-./:;<=>?@[\]^_`{|}~0123456789**************************
**PART1;
MC=unknown;
MC_MODEL=unknown;
MC_ID=unknown;
OS=unknown;
OS_RELEASE=unknown;
FRU=Parasolid 37.1.212;
APPL=Onshape;
SITE=unknown;
USER=unknown;
FORMAT=text;
GUISE=transmit;
KEY=BTGapi::writeModels_.xmt;
FILE=BTGapi::writeModels_.xmt;
DATE=2026-01-03T06:57:30 (UTC);
**PART2;
SCH=SCH_3701212_37102;
USFLD_SIZE=0;
**PART3;
**END_OF_HEADER*****************************************************************
T51 : TRANSMIT FILE created by modeller version 370121223 SCH_3701212_37102_1300
6239 0 12 36 CCCI7 lattice222 0 CCCI4 mesh1006 0 I8 polyline1008 0 CCCCCCCDI5 ow
ner1040 0 CCCI16 boundary_lattice222 0 CCCI13 boundary_mesh1006 0 I17 boundary_p
olyline1008 0 CCCA16 index_map_offset0 0 1 dA9 index_map82 0 A17 node_id_index_m
ap82 0 A20 schema_embedding_map82 0 A5 child12 0 A14 lowest_node_id0 0 1 dA16 me
sh_offset_data206 0 Z1 4958 2 3 0 0 0 0 0 0 0 1e3 1e-8 0 4 5 1 0 1 2 6 0 7 8 9 0
 0 10 11 12 0 0 0 0 0 0 0 81 255 1 2 4958 13 1 14 0 0 0 15 70 11 CI9 list_type0
 0 1 uI10 notransmit0 0 1 lCCCDCCDI12 finger_index0 0 1 dI12 finger_block1012 0
 CZ3 0 4 T1 0 0 6 20 1 16 16 13 255 6 340 0 1 0 17 0 0 18 0 51 255 7 1172 0 17 1
9 0 0 +-.103100000048 -.0107131656169241 .00381 -1 0 0 .001016 0 0 1 31 255 8 48
42 0 20 21 0 0 +-.370009671354294 116258782260056e-33 .003302 0 0 -1 -1 0 0 .001
89865 29 255 9 3291 0 12 22 0 -.300159671354294 -.0115930474271691 .003302 19 9
 CCCCCCI5 frame230 0 CA5 owner12 0 Z10 1 0 1 18 0 23 0 V0 16 255 11 3306 0 ?24 0
 25 27 0 0 1 18 255 12 3285 0 30 0 29 9 ?1 17 255 30 0 26 28 34 12 35 32 0 24 +1
8 29 3278 0 33 12 31 22 ?1 17 33 0 38 40 36 29 39 37 0 41 +18 31 3939 0 45 29 43
 42 ?1 29 22 3284 0 29 42 9 -.376359671354294 -.0120910033057871 -.0014444788840
28182 29 42 4367 0 31 44 22 -.300159671354294 .0115930474271691 .003302 29 44 43
68 0 43 46 42 -.300159671354294 .01095806003159638 -.0024638 18 43 3940 0 50 31
 48 44 ?1 29 46 4369 0 48 47 44 -.300159671354294 .00988847437686382 .0032534471
3168952 18 48 3941 0 49 43 51 46 ?1 29 47 4370 0 51 55 46 -.300159671354294 .009
85497072750201 .003302 18 51 3942 0 52 48 53 47 ?1 29 55 4371 0 53 54 47 -.30015
9671354294 -.00985497072750201 .003302 18 53 3943 0 57 51 60 55 ?1 29 54 4372 0
 60 59 55 -.300159671354294 -.00988847437686382 .00325344713168952 18 60 3944 0
 56 53 58 54 ?1 29 59 4374 0 58 61 54 -.300159671354294 -.01095806003159638 -.00
24638 18 58 3909 0 62 60 64 59 ?1 29 61 4375 0 64 63 59 -.300159671354294 .01209
10033057871 -.001444478884028182 18 64 3951 0 65 58 67 61 ?1 29 63 4379 0 67 70
 61 -.376359671354294 .0115930474271691 .003302 18 67 4155 0 69 64 66 63 ?1 29 7
0 4380 0 66 68 63 -.376359671354294 .0120910033057871 -.001444478884028182 18 66
 4156 0 75 67 71 70 ?1 29 68 4381 0 71 73 70 -.376359671354294 .0109580600315963
8 -.0024638 18 71 4157 0 72 66 74 68 ?1 29 73 4382 0 74 76 68 -.376359671354294
 .00988847437686382 .00325344713168952 18 74 4158 0 80 71 77 73 ?1 29 76 4383 0
 77 78 73 -.376359671354294 .00985497072750201 .003302 18 77 4159 0 79 74 82 76
 ?1 29 78 4384 0 82 85 76 -.376359671354294 -.00985497072750201 .003302 18 82 41
60 0 84 77 81 78 ?1 29 85 4385 0 81 83 78 -.376359671354294 -.00988847437686382
 .00325344713168952 18 81 4161 0 89 82 90 85 ?1 29 83 4386 0 90 87 85 -.37635967
1354294 -.0115930474271691 .003302 18 90 4184 0 40 81 88 83 ?1 29 87 4388 0 88 8
6 83 -.376359671354294 -.01095806003159638 -.0024638 18 88 4176 0 36 90 93 87 ?1
 29 86 4399 0 93 95 87 -.376359671354294 -.0107131656169241 .004826 18 93 4164 0
 91 88 94 86 ?1 29 95 4400 0 94 92 86 -.376359671354294 .0107131656169241 .00482
6 18 94 4183 0 96 93 100 95 ?1 29 92 4423 0 100 98 95 -.300159671354294 -.010713
1656169241 .004826 18 100 3945 0 34 94 97 92 ?1 29 98 4424 0 97 99 92 -.30015967
1354294 .0107131656169241 .004826 18 97 3910 0 101 100 105 98 ?1 29 99 4437 0 10
5 0 98 -.300159671354294 -.0120910033057871 -.001444478884028182 18 105 3914 0 2
8 97 0 99 ?1 17 28 0 26 62 30 105 24 11 0 103 -15 255 26 4002 0 101 102 0 17 62
 0 26 56 28 58 103 104 0 106 -17 24 0 110 107 108 12 28 11 0 109 +17 103 0 112 1
15 114 105 62 104 0 108 +15 112 3328 0 114 111 0 17 115 0 112 39 103 29 108 113
 0 0 +17 114 0 112 103 39 58 116 117 0 0 -16 104 3751 0 ?103 119 118 120 0 0 1 1
7 108 0 110 24 41 105 115 113 0 0 -15 110 3300 0 108 122 0 17 41 0 110 108 107 2
9 40 25 0 115 -16 113 35 125 ?115 124 121 123 0 0 1 81 1 125 3275 130 113 0 0 12
6 128 127 16 124 42 128 ?107 117 113 129 0 0 1 16 121 3742 0 ?101 113 131 135 0
 0 1 133 255 123 3276 0 113 132 129 0 +133 -.300159671354294 -.0120910033057871
 -.001444478884028182 -.376359671354294 -.0120910033057871 -.001444478884028182
 .197059671306294 .273259671306294 30 255 132 994 0 1 134 123 137 +-.10310000004
8 -.0115930474271691 .003302 -1 0 0 133 129 3290 0 124 123 140 0 +132 -.30015967
1354294 -.0115930474271691 .003302 -.376359671354294 -.0115930474271691 .003302
 .197059671306294 .273259671306294 30 133 988 0 1 135 139 136 +-.103100000048 -.
0120910033057871 -.001444478884028182 -1 0 0 31 135 4264 0 121 138 133 0 --.3001
59671354294 .0107131656169241 .00381 -1 0 0 0 0 1 .001016 30 139 999 0 1 133 144
 145 +-.103100000048 -.01095806003159638 -.0024638 -1 0 0 141 255 136 123 136 13
6 133 30 144 1009 0 1 139 142 143 +-.103100000048 -.00988847437686382 .003253447
13168952 -1 0 0 141 145 141 145 145 139 133 141 3318 0 117 27 148 0 +139 -.30015
9671354294 -.01095806003159638 -.0024638 -.376359671354294 -.01095806003159638 -
.0024638 .197059671306294 .273259671306294 16 117 47 150 ?116 146 124 141 0 0 1
 31 27 3308 0 11 140 141 0 --.300159671354294 -.0151098252798444 .00127158736007
7806 -1 0 0 0 0 1 .004060825279844375 133 148 3344 0 146 141 149 0 +144 -.300159
671354294 -.00988847437686382 .00325344713168952 -.376359671354294 -.00988847437
686382 .00325344713168952 .197059671306294 .273259671306294 16 146 60 147 ?151 1
55 117 148 0 0 1 133 149 3370 0 155 148 153 0 +142 -.300159671354294 -.009854970
72750201 .003302 -.376359671354294 -.00985497072750201 .003302 .197059671306294
 .273259671306294 16 155 67 152 ?154 156 146 149 0 0 1 133 153 3396 0 156 149 16
0 0 +158 -.300159671354294 .00985497072750201 .003302 -.376359671354294 .0098549
7072750201 .003302 .197059671306294 .273259671306294 30 142 1015 0 1 144 158 157
 +-.103100000048 -.00985497072750201 .003302 -1 0 0 30 158 1026 0 1 142 159 161
 +-.103100000048 .00985497072750201 .003302 -1 0 0 141 157 149 157 157 142 30 15
9 1082 0 1 158 165 162 +-.103100000048 .00988847437686382 .00325344713168952 -1
 0 0 141 161 153 161 161 158 30 165 1086 0 1 159 163 164 +-.103100000048 .010958
06003159638 -.0024638 -1 0 0 141 162 160 162 162 159 133 160 3422 0 167 153 170
 0 +159 -.300159671354294 .00988847437686382 .00325344713168952 -.37635967135429
4 .00988847437686382 .00325344713168952 .197059671306294 .273259671306294 16 167
 141 169 ?166 168 156 160 0 0 1 133 170 3448 0 168 160 171 0 +165 -.300159671354
294 .01095806003159638 -.0024638 -.376359671354294 .01095806003159638 -.0024638
 .197059671306294 .273259671306294 16 168 144 172 ?174 173 167 170 0 0 1 133 171
 3474 0 173 170 175 0 +163 -.300159671354294 .0120910033057871 -.001444478884028
182 -.376359671354294 .0120910033057871 -.001444478884028182 .197059671306294 .2
73259671306294 16 173 153 177 ?180 179 168 171 0 0 1 133 175 3500 0 179 171 176
 0 +178 -.300159671354294 .0115930474271691 .003302 -.376359671354294 .011593047
4271691 .003302 .197059671306294 .273259671306294 30 163 1094 0 1 165 178 185 +-
.103100000048 .0120910033057871 -.001444478884028182 -1 0 0 30 178 1104 0 1 163
 181 183 +-.103100000048 .0115930474271691 .003302 -1 0 0 141 185 171 185 185 16
3 30 181 1110 0 1 178 134 182 +-.103100000048 .0107131656169241 .004826 -1 0 0 1
41 183 175 183 183 178 30 134 1140 0 1 181 132 184 +-.103100000048 -.01071316561
69241 .004826 -1 0 0 141 182 176 182 182 181 133 176 3526 0 186 175 190 0 +181 -
.300159671354294 .0107131656169241 .004826 -.376359671354294 .0107131656169241 .
004826 .197059671306294 .273259671306294 16 186 173 187 ?188 189 179 176 0 0 1 1
33 190 3552 0 189 176 21 0 +134 -.300159671354294 -.0107131656169241 .004826 -.3
76359671354294 -.0107131656169241 .004826 .197059671306294 .273259671306294 16 1
89 204 192 ?195 25 186 190 0 0 1 31 21 4834 0 194 190 8 0 +-.338259671354294 116
258782260056e-33 .003302 0 0 -1 -1 0 0 .00189865 16 194 4905 0 ?191 20 193 21 0
 0 1 17 191 0 199 191 191 0 200 194 0 0 +16 20 4875 0 ?197 37 194 8 0 0 1 16 193
 4878 0 ?198 194 196 203 0 0 1 17 198 0 205 198 198 0 201 193 0 0 +16 196 4908 0
 ?204 193 0 202 0 0 1 31 203 4943 0 193 0 202 0 +-.370009671354294 1162587822600
56e-33 .004826 0 0 1 1 0 0 .00189865 31 202 4941 0 196 203 206 0 +-.338259671354
294 116258782260056e-33 .004826 0 0 1 1 0 0 .00189865 30 206 4359 0 119 202 120
 0 +-.300159671354294 0 .004826 0 -1 0 16 119 3834 0 ?34 210 104 206 0 0 1 30 12
0 4356 0 104 206 208 0 +-.300159671354294 .00540996288787581 -.0171902843426928
 0 -.743401098550337 .668845876621926 30 208 4349 0 118 120 207 0 +-.37635967135
4294 .000733897089958191 .004826 0 -1 0 16 118 4044 0 ?209 104 37 208 0 0 1 30 2
07 4343 0 37 208 211 0 +-.376359671354294 .00843481567835756 -.01991177657649135
 0 -.743401098550337 .668845876621926 16 37 4020 0 ?33 118 20 207 0 0 1 31 211 4
285 0 210 207 215 0 --.376359671354294 -.0107131656169241 .00381 -1 0 0 0 0 1 .0
01016 16 210 4120 0 ?213 212 119 211 0 0 1 31 215 4284 0 212 211 214 0 --.376359
671354294 -.0151098252798444 .001271587360077806 -1 0 0 0 0 1 .00558482527984438
 16 212 4123 0 ?216 220 210 215 0 0 1 31 214 4283 0 220 215 217 0 --.37635967135
4294 -.00985497072750201 .00326616405803792 -1 0 0 0 0 1 3583594196207965e-20 16
 220 4038 0 ?89 218 212 214 0 0 1 30 217 4282 0 218 214 219 0 +-.376359671354294
 .00985497072750201 .003302 0 1 0 16 218 4126 0 ?222 225 220 217 0 0 1 31 219 42
81 0 225 217 224 0 --.376359671354294 .00985497072750201 .00326616405803792 -1 0
 0 0 0 1 3583594196207965e-20 16 225 4035 0 ?79 221 218 219 0 0 1 31 224 4280 0
 221 219 223 0 --.376359671354294 .0151098252798444 .001271587360077806 -1 0 0 0
 0 1 .00558482527984438 16 221 4129 0 ?226 227 225 224 0 0 1 30 223 4279 0 227 2
24 229 0 +-.376359671354294 .0120910033057871 -.001444478884028182 0 .7434010985
50337 .668845876621926 16 227 4132 0 ?228 230 221 223 0 0 1 31 229 4278 0 230 22
3 232 0 --.376359671354294 .0151098252798444 .001271587360077806 -1 0 0 0 0 1 .0
04060825279844375 16 230 4032 0 ?75 235 227 229 0 0 1 31 232 4277 0 235 229 234
 0 --.376359671354294 .0107131656169241 .00381 -1 0 0 0 0 1 .001016 16 235 4112
 0 ?231 32 230 232 0 0 1 31 234 4272 0 32 232 233 0 --.300159671354294 -.0107131
656169241 .00381 -1 0 0 0 0 1 .001016 16 32 3760 0 ?30 240 235 234 0 0 1 31 233
 4271 0 240 234 236 0 --.300159671354294 -.0151098252798444 .001271587360077806
 -1 0 0 0 0 1 .00558482527984438 16 240 3754 0 ?56 238 32 233 0 0 1 31 236 4270
 0 238 233 237 0 --.300159671354294 -.00985497072750201 .00326616405803792 -1 0
 0 0 0 1 3583594196207965e-20 16 238 3855 0 ?239 241 240 236 0 0 1 30 237 4269 0
 241 236 245 0 +-.300159671354294 .00985497072750201 .003302 0 1 0 16 241 3757 0
 ?52 242 238 237 0 0 1 31 245 4268 0 242 237 243 0 --.300159671354294 .009854970
72750201 .00326616405803792 -1 0 0 0 0 1 3583594196207965e-20 16 242 3852 0 ?244
 247 241 245 0 0 1 31 243 4267 0 247 245 250 0 --.300159671354294 .0151098252798
444 .001271587360077806 -1 0 0 0 0 1 .00558482527984438 16 247 3745 0 ?50 249 24
2 243 0 0 1 30 250 4266 0 249 243 138 0 +-.300159671354294 .0120910033057871 -.0
01444478884028182 0 .743401098550337 .668845876621926 16 249 3748 0 ?65 131 247
 250 0 0 1 31 138 4265 0 131 250 135 0 --.300159671354294 .0151098252798444 .001
271587360077806 -1 0 0 0 0 1 .004060825279844375 16 131 3849 0 ?246 121 249 138
 0 0 1 17 246 0 248 180 254 64 45 131 0 255 +15 248 3510 0 254 252 0 17 180 0 24
8 253 246 66 255 173 0 0 +17 254 0 248 246 253 31 251 179 0 0 -17 45 0 26 101 65
 31 246 131 0 258 -17 255 0 260 256 228 64 180 173 0 0 -15 260 3490 0 256 259 0
 17 256 0 260 174 255 43 65 249 0 257 -17 228 0 260 255 174 66 72 227 0 180 +17
 174 0 260 228 256 71 257 168 0 0 +17 72 0 38 80 75 71 228 227 0 226 -15 38 4233
 0 75 261 0 17 80 0 38 79 72 74 226 221 0 265 -17 75 0 38 72 69 66 253 230 0 228
 +17 226 0 263 257 166 71 80 221 0 174 +15 263 3464 0 262 264 0 17 257 0 263 262
 226 43 174 168 0 0 -17 166 0 263 226 262 74 266 167 0 0 +17 262 0 263 166 257 4
8 50 247 0 266 -17 266 0 270 244 265 48 166 167 0 0 -15 270 3432 0 266 268 0 17
 244 0 270 267 266 51 49 242 0 269 +17 265 0 270 266 267 74 79 225 0 166 -17 267
 0 270 265 244 77 269 156 0 0 +17 79 0 38 84 80 77 265 225 0 222 +17 84 0 38 89
 79 82 222 218 0 271 -17 222 0 275 269 154 77 84 218 0 267 +15 275 3412 0 272 27
3 0 17 269 0 275 272 222 51 267 156 0 0 -17 154 0 275 222 272 82 274 155 0 0 +17
 272 0 275 154 269 53 52 241 0 274 -17 274 0 277 239 271 53 154 155 0 0 -15 277
 3380 0 274 280 0 17 239 0 277 151 274 60 57 238 0 279 +17 271 0 277 274 151 82
 89 220 0 154 -17 151 0 277 271 239 81 279 146 0 0 +17 89 0 38 36 84 81 271 220
 0 216 +17 36 0 38 33 89 88 216 212 0 39 -17 216 0 276 279 116 81 36 212 0 151 +
15 276 3360 0 106 278 0 17 279 0 276 106 216 60 151 146 0 0 -17 116 0 276 216 10
6 88 114 117 0 0 +17 106 0 276 116 279 58 56 240 0 114 -17 56 0 26 57 62 60 106
 240 0 239 +17 57 0 26 52 56 53 239 238 0 272 -17 52 0 26 49 57 51 272 241 0 244
 +17 49 0 26 50 52 48 244 242 0 262 -17 50 0 26 65 49 43 262 247 0 256 +17 65 0
 26 45 50 64 256 249 0 246 +14 255 278 52 281 ?111 280 276 6 282 +0 0 111 280 23
 81 1 281 3358 130 278 0 0 147 152 284 14 111 45 283 ?122 278 112 6 285 +0 0 122
 278 23 14 280 61 287 ?278 273 277 6 290 -0 0 278 273 23 51 282 1002 0 278 285 2
90 0 +-.103100000048 -.0151098252798444 .001271587360077806 -1 0 0 .005584825279
84438 0 0 1 13 23 2 0 0 0 0 0 0 10 17 14 17 241 289 ?286 0 288 6 7 +0 0 286 0 23
 81 1 289 3578 130 17 0 0 295 0 291 14 286 174 295 ?293 17 292 6 19 +0 0 293 17
 23 15 288 3580 0 35 17 0 17 35 0 288 195 109 100 30 32 0 294 -17 195 0 288 213
 35 93 294 189 0 0 +17 109 0 288 35 213 12 107 124 0 0 -17 294 0 296 300 209 100
 195 189 0 0 -15 296 3568 0 300 286 0 17 300 0 296 188 294 97 34 119 0 297 -17 2
09 0 296 294 188 93 96 118 0 195 +17 188 0 296 209 300 94 297 186 0 0 +17 96 0 3
8 69 91 94 209 118 0 231 -17 69 0 38 75 96 67 231 235 0 253 -17 91 0 38 96 40 93
 213 210 0 209 -17 231 0 298 297 251 94 69 235 0 188 +15 298 3542 0 258 293 0 17
 297 0 298 258 231 97 188 186 0 0 -17 251 0 298 231 258 67 254 179 0 0 +17 258 0
 298 251 297 31 101 121 0 254 -16 179 166 299 ?251 186 173 175 0 0 1 81 1 299 34
99 130 179 0 0 302 305 304 80 7 CCCCCDI12 legal_owners0 17 1 lCZ1 130 301 303 90
00 0 0 0 0 3 5 0 0 0 FFTFTFTTFFFFFFFFF2 81 1 302 3488 130 259 0 0 177 299 309 81
 1 305 3514 130 252 0 0 299 187 310 83 255 1 304 146 14 252 158 305 ?259 293 248
 6 307 -0 0 259 293 23 81 1 187 3525 130 186 0 0 305 308 306 83 1 310 245 81 1 3
08 3540 130 293 0 0 187 192 313 83 1 306 143 14 293 167 308 ?252 286 298 6 315 +
0 0 252 286 23 81 1 192 3551 130 189 0 0 308 295 311 83 1 313 244 81 1 295 3566
 130 286 0 0 192 289 314 83 1 311 128 83 1 314 243 51 315 1105 0 293 307 19 0 +-
.103100000048 .0107131656169241 .00381 -1 0 0 .001016 0 0 1 51 307 1097 0 252 31
2 315 0 +-.103100000048 .0151098252798444 .001271587360077806 -1 0 0 .0040608252
79844375 0 0 1 50 255 19 1111 0 286 315 7 0 +-.103100000048 -.0107131656169241 .
004826 0 0 1 1 0 0 50 312 1091 0 259 316 307 0 +-.103100000048 .0120910033057871
 -.001444478884028182 0 .668845876621926 -.743401098550337 0 .743401098550337 .6
68845876621926 14 259 151 302 ?264 252 260 6 312 +0 0 264 252 23 51 316 1083 0 2
64 320 312 0 +-.103100000048 .0151098252798444 .001271587360077806 -1 0 0 .00558
482527984438 0 0 1 14 264 142 318 ?268 259 263 6 316 +0 0 268 259 23 51 320 1077
 0 268 317 316 0 +-.103100000048 .00985497072750201 .00326616405803792 -1 0 0 35
83594196207965e-20 0 0 1 14 268 135 319 ?273 264 270 6 320 -0 0 273 264 23 50 31
7 1016 0 273 290 320 0 +-.103100000048 .00985497072750201 .003302 0 0 -1 -1 0 0
 14 273 68 321 ?280 268 325 6 317 +0 0 280 268 23 51 290 1010 0 280 282 317 0 +-
.103100000048 -.00985497072750201 .00326616405803792 -1 0 0 3583594196207965e-20
 0 0 1 81 1 321 3410 130 273 0 0 323 169 322 15 325 4841 0 324 273 326 17 324 0
 325 324 324 0 197 20 0 0 -15 326 4833 0 200 273 275 17 200 0 326 200 200 0 191
 194 0 0 -17 197 0 330 197 197 0 324 20 0 0 +15 330 4891 0 197 327 205 14 327 48
88 0 ?0 328 330 6 329 -0 0 0 328 23 15 205 4892 0 198 327 0 14 328 4918 0 ?327 1
02 199 6 332 -0 0 327 102 23 51 329 4938 0 327 0 332 0 +-.370009671354294 116258
782260056e-33 -.020574 0 0 1 .00189865 1 0 0 51 332 4935 0 328 329 335 0 +-.3382
59671354294 116258782260056e-33 -.020574 0 0 1 .00189865 1 0 0 50 335 4253 0 102
 332 334 0 +-.300159671354294 0 -.02320328747919385 -1 0 0 0 0 1 14 102 3999 0 ?
328 261 26 6 335 -0 0 328 261 23 50 334 4249 0 261 335 331 0 +-.376359671354294
 .000733897089958191 -.02847110472451975 -1 0 0 0 0 1 14 261 4230 0 ?102 122 38
 6 334 +0 0 102 122 23 51 331 985 0 122 334 285 0 +-.103100000048 -.015109825279
8444 .001271587360077806 -1 0 0 .004060825279844375 0 0 1 14 122 33 333 ?261 111
 110 6 331 -0 0 261 111 23 50 285 996 0 111 331 282 0 +-.103100000048 -.01209100
33057871 -.001444478884028182 0 -.668845876621926 -.743401098550337 0 .743401098
550337 -.668845876621926 81 1 333 3305 130 122 0 0 128 150 336 81 1 128 3289 130
 124 0 0 125 333 337 81 1 150 3317 130 117 0 0 333 283 339 83 1 336 253 81 1 283
 3338 130 111 0 0 150 147 338 83 1 339 198 81 1 147 3343 130 146 0 0 283 281 340
 83 1 338 252 83 1 340 192 83 1 337 2e2 15 199 4921 0 191 328 342 15 342 4922 0
 204 328 0 17 204 0 342 204 204 0 345 196 0 0 +17 345 0 344 345 345 0 204 196 0
 0 -15 344 4849 0 345 286 296 81 1 323 3395 130 156 0 0 287 321 341 81 1 169 342
1 130 167 0 0 321 319 343 83 1 322 249 81 1 319 3436 130 268 0 0 169 172 350 83
 1 343 157 81 1 172 3447 130 168 0 0 319 318 346 83 1 350 248 81 1 318 3462 130
 264 0 0 172 177 348 83 1 346 156 81 1 177 3473 130 173 0 0 318 302 347 83 1 348
 247 83 1 347 152 16 156 78 323 ?267 167 155 153 0 0 1 81 1 287 3384 130 280 0 0
 152 323 349 83 1 341 184 81 1 152 3369 130 155 0 0 281 287 351 83 1 349 250 83
 1 351 189 83 1 309 246 79 255 13 303 BTI/importTag17 101 0 26 34 45 97 258 121
 0 300 +17 34 0 26 30 101 100 300 119 0 35 +17 40 0 38 91 33 90 41 25 0 213 +17
 213 0 288 109 195 90 91 210 0 107 +17 107 0 110 41 24 90 109 124 0 0 +16 25 329
9 0 ?40 11 189 140 0 0 1 31 140 3301 0 25 129 27 0 --.376359671354294 -.01510982
52798444 .001271587360077806 -1 0 0 0 0 1 .004060825279844375 17 253 0 248 254 1
80 67 75 230 0 251 -15 292 4857 0 201 286 344 17 201 0 292 201 201 0 198 193 0 0
 -83 1 291 242 83 1 284 251 17 39 0 112 114 115 88 33 37 0 116 -141 184 190 184
 184 134 141 164 170 164 164 165 141 143 148 143 143 144 141 137 129 137 137 132
 81 1 126 2407 130 1 355 352 0 125 353 83 1 127 203 81 1 355 2148 354 1 0 126 0
 0 357 81 1 352 2408 360 1 126 359 0 0 356 83 1 353 257 80 1 360 130 358 9000 0
 0 0 0 3 5 0 0 0 FFTFTFTTFFFFFFFFF2 81 1 359 4956 364 1 352 14 0 0 365 83 1 356
 6944 80 1 364 362 363 8040 0 0 0 0 3 5 0 0 0 TTTFFFFFFFFFFFFFF2 81 1 14 4957 36
1 1 359 2 0 0 368 83 3 365 .980392156862745 .713725490196078 .00392156862745098
 80 1 361 13 370 8038 0 0 0 0 0 0 0 0 0 TTTTTTTTTTTTTFTFT10 98 255 60 368 49 50
 49 53 53 65 50 54 95 51 48 52 32 83 116 97 105 110 108 101 115 115 32 83 116 10
1 101 108 32 80 97 114 116 105 97 108 45 69 120 116 101 110 115 105 111 110 32 6
8 114 97 119 101 114 32 83 108 105 100 101 115 79 14 370 SDL/TYSA_UNAME79 17 363
 SDL/TYSA_COLOUR_279 18 358 BTI/importMaxCount80 1 354 366 369 9000 0 0 0 0 3 5
 0 0 0 TTTFFFFFFFFFFFFFF1 82 255 1 357 0 79 23 369 ONSHAPE_ORIGINALBODY_ID19 18
 339 0 1 0 10 6 0 S0 74 4 CI16 index_map_offset0 0 1 dCCZ20 16 6 0 0 355 289 352
 359 14 2 0 0 0 0 0 0 0 0 0 0 0 0 0 0 80 1 13 367 371 8017 0 0 0 0 0 0 0 0 0 TTT
TTTTTTTTTTFTFT3 84 255 60 15 12155A26_304 Stainless Steel Partial-Extension Draw
er Slides79 13 371 SDL/TYSA_NAME1 0 
