**ABCDEFGHIJKLMNOPQRSTUVWXYZabcdefghijklmnopqrstuvwxyz**************************
**PARASOLID !"#$%&'()*+,-./:;<=>?@[\]^_`{|}~0123456789**************************
**PART1;
MC=unknown;
MC_MODEL=unknown;
MC_ID=unknown;
OS=unknown;
OS_RELEASE=unknown;
FRU=Parasolid 37.1.212;
APPL=Onshape;
SITE=unknown;
USER=unknown;
FORMAT=text;
GUISE=transmit;
KEY=BTGapi::writeModels_.xmt;
FILE=BTGapi::writeModels_.xmt;
DATE=2026-01-03T06:57:30 (UTC);
**PART2;
SCH=SCH_3701212_37102;
USFLD_SIZE=0;
**PART3;
**END_OF_HEADER*****************************************************************
T51 : TRANSMIT FILE created by modeller version 370121223 SCH_3701212_37102_1300
6239 0 12 36 CCCI7 lattice222 0 CCCI4 mesh1006 0 I8 polyline1008 0 CCCCCCCDI5 ow
ner1040 0 CCCI16 boundary_lattice222 0 CCCI13 boundary_mesh1006 0 I17 boundary_p
olyline1008 0 CCCA16 index_map_offset0 0 1 dA9 index_map82 0 A17 node_id_index_m
ap82 0 A20 schema_embedding_map82 0 A5 child12 0 A14 lowest_node_id0 0 1 dA16 me
sh_offset_data206 0 Z1 943 2 3 0 0 0 0 0 0 0 1e3 1e-8 0 4 5 1 0 1 2 6 0 7 8 9 0
 0 10 11 12 0 0 0 0 0 0 0 81 255 1 2 943 13 1 14 0 0 0 15 70 11 CI9 list_type0 0
 1 uI10 notransmit0 0 1 lCCCDCCDI12 finger_index0 0 1 dI12 finger_block1012 0 CZ
3 0 4 T1 0 0 3 20 1 16 16 13 255 6 881 0 1 0 17 0 0 18 0 50 255 7 876 0 17 19 0
 0 +.2032 .0127 -.007366 0 1 0 0 0 1 30 255 8 880 0 11 20 0 0 +.0508 .0127 -.007
366 0 0 1 29 255 9 857 0 21 22 0 -.2032 .0127 -.004826 19 9 CCCCCCI5 frame230 0
 CA5 owner12 0 Z10 538 0 1 18 0 23 0 V0 16 255 11 864 0 ?24 0 25 8 0 0 1 18 255
 12 532 0 27 0 30 29 ?1 17 255 27 0 26 28 34 12 35 32 0 33 +18 30 527 0 34 12 31
 38 ?1 29 29 534 0 12 38 40 -.2032 .0127 -.007366 29 38 529 0 30 36 29 -.2032 -.
0127 -.007366 29 40 860 0 39 29 37 .0508 .0127 -.004826 18 39 848 0 24 41 0 40 ?
1 29 37 859 0 41 40 22 .0508 -.0127 -.004826 18 41 844 0 45 43 39 37 ?1 29 22 85
8 0 43 37 9 -.2032 -.0127 -.004826 18 43 840 0 42 21 41 22 ?1 17 42 0 44 46 50 4
3 48 47 0 49 +18 21 836 0 51 55 43 9 ?1 17 51 0 52 53 54 21 33 57 0 60 +18 55 51
7 0 59 31 21 56 ?1 17 59 0 52 54 53 55 24 11 0 58 -18 31 522 0 61 30 55 36 ?1 29
 56 519 0 55 0 36 .0508 .0127 -.007366 29 36 524 0 31 56 38 .0508 -.0127 -.00736
6 17 61 0 26 34 28 31 58 62 0 64 +15 255 26 64 0 28 63 0 17 34 0 26 27 61 30 65
 66 0 46 +17 28 0 26 61 27 55 54 70 0 0 -17 58 0 68 24 64 55 61 62 0 28 -16 62 3
02 0 ?61 66 70 67 0 0 1 17 64 0 68 58 45 31 50 25 0 65 -15 68 869 0 45 69 0 17 4
5 0 68 64 24 41 75 71 0 50 +17 50 0 44 42 65 41 64 25 0 48 +16 25 863 0 ?50 11 7
3 20 0 0 1 17 65 0 44 50 46 31 34 66 0 0 -15 44 867 0 42 72 0 17 46 0 44 65 42 3
0 49 73 0 35 -16 66 307 0 ?34 32 62 74 0 0 1 16 32 312 0 ?27 57 66 76 0 0 1 30 7
4 309 0 66 67 76 0 +.2032 -.0127 -.007366 -1 0 0 30 67 304 0 62 80 74 0 +.0508 -
.0127 -.007366 340282675523095e-30 -1 0 30 76 314 0 32 74 77 0 +-.2032 -.0127 -.
007366 0 1 10244429976241e-29 30 77 856 0 78 76 79 0 +.2032 .0127 -.004826 -1 0
 0 16 78 832 0 ?81 71 0 77 0 0 1 30 79 855 0 71 77 85 0 +.0508 -.0127 -.004826 3
40282675523095e-30 -1 0 16 71 828 0 ?45 47 78 79 0 0 1 30 85 854 0 47 79 83 0 +.
2032 -.0127 -.004826 -1 0 0 16 47 824 0 ?42 82 71 85 0 0 1 30 83 853 0 82 85 84
 0 +-.2032 -.0127 -.004826 0 1 10244429976241e-29 16 82 820 0 ?60 70 47 83 0 0 1
 30 84 877 0 57 83 89 0 +-.2032 .0127 -.007366 0 0 1 16 57 861 0 ?51 73 32 84 0
 0 1 30 89 878 0 73 84 20 0 +-.2032 -.0127 -.007366 0 0 1 16 73 862 0 ?49 25 57
 89 0 0 1 30 20 879 0 25 89 8 0 +.0508 -.0127 -.007366 0 0 1 17 49 0 90 60 35 43
 46 73 0 87 +15 90 865 0 60 88 0 17 60 0 90 33 49 21 87 82 0 81 +17 35 0 90 49 3
3 30 27 32 0 0 -17 87 0 86 48 81 43 60 82 0 0 -15 86 819 0 81 93 0 17 48 0 86 75
 87 41 42 47 0 0 -17 81 0 86 87 75 21 53 78 0 0 +17 75 0 86 81 48 39 45 71 0 53
 -17 53 0 52 59 51 39 81 78 0 0 -15 52 871 0 53 17 0 14 255 17 872 0 ?69 0 52 6
 7 +0 0 69 0 23 14 69 870 0 ?72 17 68 6 19 -0 0 72 17 23 13 23 539 0 0 0 0 0 0 1
0 17 14 72 868 0 ?88 69 44 6 95 -0 0 88 69 23 50 19 875 0 69 95 7 0 +.0508 -.012
7 -.007366 -1 -340282675523095e-30 0 340282675523095e-30 -1 0 50 95 874 0 72 91
 19 0 +.2032 -.0127 -.007366 0 1 0 0 0 1 50 91 873 0 88 94 95 0 +-.2032 -.0127 -
.007366 1 0 0 0 0 -1 14 88 866 0 ?63 72 90 6 91 -0 0 63 72 23 50 94 852 0 93 92
 91 0 +-.0762 0 -.004826 0 0 -1 1 0 0 14 93 798 0 ?0 63 86 6 94 -0 0 0 63 23 50
 92 3 0 63 0 94 0 +-.0762 0 -.007366 0 0 -1 1 0 0 14 63 1 0 ?93 88 26 6 92 +0 0
 93 88 23 17 33 0 90 35 60 12 51 57 0 54 -17 54 0 52 51 59 12 28 70 0 0 +16 70 2
97 0 ?54 62 82 80 0 0 1 30 80 299 0 70 0 67 0 +.2032 .0127 -.007366 -1 0 0 17 24
 0 68 45 58 39 59 11 0 75 +19 18 882 0 1 0 10 6 0 S0 74 4 CI16 index_map_offset0
 0 1 dCCZ20 16 3 0 0 96 14 2 0 0 0 0 0 0 0 0 0 0 0 0 0 0 0 0 0 81 1 96 941 100 1
 0 14 0 0 98 81 1 14 942 97 1 96 2 0 0 99 80 7 CCCCCDI12 legal_owners0 17 1 lCZ1
 97 13 101 8038 0 0 0 0 0 0 0 0 0 TTTTTTTTTTTTTFTFT10 98 255 12 99 70 111 97 109
 32 80 97 100 100 105 110 103 79 255 14 101 SDL/TYSA_UNAME80 1 100 105 103 8040
 0 0 0 0 3 5 0 0 0 TTTFFFFFFFFFFFFFF2 83 255 3 98 .768627450980392 .886274509803
922 .952941176470588 79 17 103 SDL/TYSA_COLOUR_280 1 13 102 104 8017 0 0 0 0 0 0
 0 0 0 TTTTTTTTTTTTTFTFT3 84 255 12 15 Foam Padding79 13 104 SDL/TYSA_NAME1 0 
