**ABCDEFGHIJKLMNOPQRSTUVWXYZabcdefghijklmnopqrstuvwxyz**************************
**PARASOLID !"#$%&'()*+,-./:;<=>?@[\]^_`{|}~0123456789**************************
**PART1;
MC=unknown;
MC_MODEL=unknown;
MC_ID=unknown;
OS=unknown;
OS_RELEASE=unknown;
FRU=Parasolid 37.1.212;
APPL=Onshape;
SITE=unknown;
USER=unknown;
FORMAT=text;
GUISE=transmit;
KEY=BTGapi::writeModels_.xmt;
FILE=BTGapi::writeModels_.xmt;
DATE=2026-01-03T06:57:30 (UTC);
**PART2;
SCH=SCH_3701212_37102;
USFLD_SIZE=0;
**PART3;
**END_OF_HEADER*****************************************************************
T51 : TRANSMIT FILE created by modeller version 370121223 SCH_3701212_37102_1300
6239 0 12 36 CCCI7 lattice222 0 CCCI4 mesh1006 0 I8 polyline1008 0 CCCCCCCDI5 ow
ner1040 0 CCCI16 boundary_lattice222 0 CCCI13 boundary_mesh1006 0 I17 boundary_p
olyline1008 0 CCCA16 index_map_offset0 0 1 dA9 index_map82 0 A17 node_id_index_m
ap82 0 A20 schema_embedding_map82 0 A5 child12 0 A14 lowest_node_id0 0 1 dA16 me
sh_offset_data206 0 Z1 85 2 3 0 0 0 0 0 0 0 1e3 1e-8 0 4 5 1 0 1 2 6 0 7 8 0 0 0
 9 10 0 0 0 0 0 0 0 0 81 255 1 2 85 11 1 12 0 0 0 13 70 11 CI9 list_type0 0 1 uI
10 notransmit0 0 1 lCCCDCCDI12 finger_index0 0 1 dI12 finger_block1012 0 CZ3 0 4
 T1 0 0 3 20 1 14 14 13 255 6 25 0 1 0 15 0 0 16 0 51 255 7 66 0 15 17 0 0 +-.19
05 0 -.032766 -1 0 0 .02286 0 0 1 31 255 8 55 0 18 19 0 0 +-.2032 0 -.032766 -1
 0 0 0 0 1 .0254 19 9 CCCCCCI5 frame230 0 CA5 owner12 0 Z9 24 0 1 16 0 20 0 V0 1
6 255 10 13 0 ?21 0 22 23 0 0 1 17 255 21 0 24 21 21 0 25 10 0 0 +16 22 8 0 ?27
 10 18 30 0 0 1 31 23 15 0 10 30 19 0 +-.1905 0 -.032766 -1 0 0 0 0 1 .0254 31 3
0 10 0 22 0 23 0 +-.1905 0 -.032766 -1 0 0 0 0 1 .02286 31 19 56 0 29 23 8 0 +-.
2032 0 -.032766 -1 0 0 0 0 1 .02286 16 29 50 0 ?26 18 0 19 0 0 1 17 26 0 28 26 2
6 0 34 29 0 0 +16 18 46 0 ?35 22 29 8 0 0 1 17 35 0 32 35 35 0 33 18 0 0 +15 255
 32 45 0 35 31 0 17 33 0 38 33 33 0 35 18 0 0 -15 38 59 0 33 40 0 14 255 40 58 0
 ?36 15 24 6 17 +0 0 36 15 20 14 36 1 0 ?31 40 39 6 37 -0 0 31 40 20 14 15 62 0
 ?40 0 41 6 7 -0 0 40 0 20 15 24 57 0 21 40 38 51 17 65 0 40 45 7 0 +-.1905 0 -.
032766 -1 0 0 .0254 0 0 1 13 20 67 0 0 0 0 0 0 9 15 50 255 45 54 0 31 37 17 0 +-
.2032 0 -.031496 -1 0 0 0 -1 0 14 31 39 0 ?0 36 43 6 45 +0 0 0 36 20 50 37 3 0 3
6 0 45 0 +-.1905 0 -.031496 -1 0 0 0 -1 0 15 43 44 0 34 31 32 17 34 0 43 34 34 0
 26 29 0 0 -15 41 61 0 42 15 28 17 42 0 41 42 42 0 27 22 0 0 -15 28 63 0 26 15 0
 17 27 0 39 27 27 0 42 22 0 0 +15 39 6 0 27 36 44 15 44 7 0 25 36 0 17 25 0 44 2
5 25 0 21 10 0 0 -19 16 68 0 1 0 9 6 0 S0 74 4 CI16 index_map_offset0 0 1 dCCZ20
 14 3 0 0 46 12 2 0 0 0 0 0 0 0 0 0 0 0 0 0 0 0 0 0 81 1 46 83 50 1 0 12 0 0 48
 81 1 12 84 47 1 46 2 0 0 49 80 7 CCCCCDI12 legal_owners0 17 1 lCZ1 47 11 51 803
8 0 0 0 0 0 0 0 0 0 TTTTTTTTTTTTTFTFT10 98 255 6 49 86 101 108 99 114 111 79 255
 14 51 SDL/TYSA_UNAME80 1 50 55 52 8040 0 0 0 0 3 5 0 0 0 TTTFFFFFFFFFFFFFF2 83
 255 3 48 .529411764705882 .568627450980392 .6 79 17 52 SDL/TYSA_COLOUR_280 1 11
 53 54 8017 0 0 0 0 0 0 0 0 0 TTTTTTTTTTTTTFTFT3 84 255 6 13 Velcro79 13 54 SDL/
TYSA_NAME1 0 
