**ABCDEFGHIJKLMNOPQRSTUVWXYZabcdefghijklmnopqrstuvwxyz**************************
**PARASOLID !"#$%&'()*+,-./:;<=>?@[\]^_`{|}~0123456789**************************
**PART1;
MC=unknown;
MC_MODEL=unknown;
MC_ID=unknown;
OS=unknown;
OS_RELEASE=unknown;
FRU=Parasolid 37.1.212;
APPL=Onshape;
SITE=unknown;
USER=unknown;
FORMAT=text;
GUISE=transmit;
KEY=BTGapi::writeModels_.xmt;
FILE=BTGapi::writeModels_.xmt;
DATE=2026-01-03T06:57:30 (UTC);
**PART2;
SCH=SCH_3701212_37102;
USFLD_SIZE=0;
**PART3;
**END_OF_HEADER*****************************************************************
T51 : TRANSMIT FILE created by modeller version 370121223 SCH_3701212_37102_1300
6239 0 12 36 CCCI7 lattice222 0 CCCI4 mesh1006 0 I8 polyline1008 0 CCCCCCCDI5 ow
ner1040 0 CCCI16 boundary_lattice222 0 CCCI13 boundary_mesh1006 0 I17 boundary_p
olyline1008 0 CCCA16 index_map_offset0 0 1 dA9 index_map82 0 A17 node_id_index_m
ap82 0 A20 schema_embedding_map82 0 A5 child12 0 A14 lowest_node_id0 0 1 dA16 me
sh_offset_data206 0 Z1 625 2 3 0 0 0 0 0 0 0 1e3 1e-8 0 4 0 1 0 1 1 5 0 6 7 8 0
 0 9 10 11 0 0 0 0 0 0 0 81 255 2 2 625 12 1 13 0 0 0 14 15 70 11 CI9 list_type0
 0 1 uI10 notransmit0 0 1 lCCCDCCDI12 finger_index0 0 1 dI12 finger_block1012 0
 CZ3 0 4 T1 0 0 4 20 1 16 16 13 255 5 62 0 1 0 17 0 0 18 0 52 255 6 613 0 19 20
 0 0 +0 0 -.00495585761938 0 0 1 .0017526 .707106781186548 .707106781186547 1 0
 0 31 255 7 597 0 10 21 0 0 -0 0 -.0053848 0 0 1 1 0 0 .001323657619379998 29 25
5 8 255 0 11 22 0 6096e-7 .003481612256789985 -.000800238000133924 19 9 CCCCCCI5
 frame230 0 CA5 owner12 0 Z9 72 0 1 18 0 23 0 V0 16 255 10 594 0 ?24 0 25 7 0 0
 1 18 255 11 251 0 27 0 30 8 ?1 17 255 27 0 29 26 28 11 34 35 0 32 +18 30 433 0
 33 11 31 22 ?1 17 33 0 38 40 36 30 39 37 0 41 -18 31 434 0 36 30 45 43 ?1 29 22
 525 0 30 43 8 -6096e-7 -.003510771401194475 -.000841656583058795 29 43 526 0 31
 42 22 -6096e-7 -.00348161225678998 -.000800238000133925 29 42 527 0 45 44 43 -6
096e-7 .00351077140119805 -.000841656583059 18 45 439 0 46 31 50 42 ?1 29 44 528
 0 50 48 42 -6096e-7 .003481612256796115 -.000800238000124209 18 50 435 0 47 45
 49 44 ?1 29 48 529 0 49 51 44 -6096e-7 .0035555654619469 -.0013462 18 49 430 0
 55 50 52 48 ?1 29 51 530 0 52 53 48 -6096e-7 -.0035555654619469 -.0013462 18 52
 429 0 40 49 54 51 ?1 29 53 531 0 54 57 51 6096e-7 -.003510771401194475 -.000841
656583058795 18 54 444 0 60 52 59 53 ?1 29 57 532 0 59 56 53 6096e-7 -.003481612
25678998 -.000800238000133925 18 59 445 0 28 54 58 57 ?1 29 56 533 0 58 61 57 60
96e-7 .00351077140119805 -.000841656583059 18 58 436 0 26 59 62 56 ?1 29 61 535
 0 62 64 56 6096e-7 .0035555654619469 -.0013462 18 62 428 0 63 58 65 61 ?1 29 64
 536 0 65 0 61 6096e-7 -.0035555654619469 -.0013462 18 65 455 0 69 62 0 64 ?1 17
 69 0 66 70 68 65 67 75 0 71 +15 255 66 460 0 55 73 0 17 70 0 66 55 69 62 71 72
 0 74 +17 68 0 66 69 55 52 76 80 0 67 -17 67 0 77 41 78 52 69 75 0 0 -16 75 285
 0 ?69 79 37 82 79 79 1 17 71 0 29 60 63 65 70 72 0 78 -15 29 472 0 28 85 0 17 6
0 0 29 28 71 54 78 84 0 81 -17 63 0 29 71 26 62 83 89 0 70 -16 72 407 0 ?70 89 8
0 90 0 0 1 17 78 0 77 67 87 65 60 84 0 0 +15 77 302 0 88 86 0 17 87 0 77 78 83 5
4 93 95 0 0 +16 84 365 0 ?78 91 35 94 0 0 1 16 91 383 0 ?46 92 84 96 0 0 1 16 35
 395 0 ?27 84 89 100 0 0 1 38 12 CCCCCCCCCCCA17 intersection_data204 0 Z94 509 0
 84 100 96 0 +98 97 99 101 105 103 31 100 510 0 35 102 94 0 -6096e-7 0 -.0082060
6927019873 1 0 0 0 0 -1 .00818339542655125 38 96 508 0 91 94 104 0 +98 106 110 1
07 108 109 52 98 157 0 86 112 115 114 -0 0 -.0022098 0 0 -1 .003683 .08715574274
76581 .996194698091746 -1 0 0 50 255 97 502 0 85 111 106 113 +6096e-7 0 -.001346
2 1 0 0 0 0 -1 40 255 4 99 0 1 4 144434638133723e-20 .000485129013834915 ??6096e
-7 -.00294308086834387 .00553347684832031 6096e-7 -.003433692561110035 260853777
959229e-19 6096e-7 -.003527088832119195 -.001025428526691544 6096e-7 -.004108251
60730783 -.00758458651392685 41 3 CI8 term_use0 0 1 cCZ1 101 L?6096e-7 -.0029430
8086834387 .00553347684832031 41 1 105 L?6096e-7 -.00410825160730783 -.007584586
51392685 204 2 17 INTERSECTION_DATA17 Intersection data7 uv_type0 0 1 u6 values0
 1 1 fT16 103 4 4.50814725657124 -.00774327684832031 -.00687967684832031 -.00294
308086834387 4.53668487654459 -.002235885377795925 -.001372285377795922 -.003433
692561110035 4.54124596127009 -.001184371473308456 -.000320771473308455 -.003527
088832119195 4.56507956205916 .00537478651392685 .00623838651392685 -.0041082516
0730783 14 255 85 481 0 ?19 116 29 5 97 -0 0 19 116 23 50 111 505 0 73 0 97 0 +0
 0 -.0013462 0 0 1 1 0 0 50 106 500 0 116 97 117 119 +-6096e-7 0 -.0013462 1 0 0
 0 0 -1 141 255 113 118 120 124 97 38 118 262 0 121 125 123 0 +20 97 122 130 130
 126 141 120 94 128 113 97 141 124 123 113 128 97 38 123 265 0 127 118 129 0 +20
 97 131 135 135 132 141 128 102 124 120 97 38 102 511 0 89 90 100 0 +98 97 133 1
34 137 140 16 89 371 0 ?83 35 72 102 0 0 1 30 255 90 521 0 72 139 102 0 +6096e-7
 0 -.0013462 0 1 0 40 3 133 0 1 3 199414005023936e-20 .000555544107934086 ??6096
e-7 .00410825160730783 -.00758458651392685 6096e-7 .003527088832119195 -.0010254
28526691544 6096e-7 .00294308086834387 .00553347684832031 41 1 134 L?6096e-7 .00
410825160730783 -.00758458651392685 41 1 137 L?6096e-7 .00294308086834387 .00553
347684832031 204 12 140 4 1.718105745120425 .00537478651392685 .0062383865139268
5 .00410825160730783 1.741939345909495 -.001184371473308456 -.000320771473308455
5 .003527088832119195 1.775038050608345 -.00774327684832031 -.00687967684832031
 .00294308086834387 30 139 523 0 80 0 90 0 +-6096e-7 0 -.0013462 0 1 0 16 80 416
 0 ?76 72 0 139 0 0 1 17 76 0 38 46 40 49 68 80 0 88 +15 38 468 0 40 116 0 17 46
 0 38 47 76 45 88 91 0 136 +17 40 0 38 76 33 52 41 138 0 68 +17 88 0 77 74 144 4
9 46 91 0 0 -17 74 0 77 83 88 62 55 79 0 0 -17 144 0 77 88 41 45 145 142 0 0 +17
 41 0 77 144 67 30 40 138 0 145 -17 145 0 143 39 136 30 144 142 0 0 -16 142 240
 0 ?144 95 141 125 95 95 1 16 95 194 0 ?87 121 142 125 142 142 1 16 141 188 0 ?1
48 142 150 146 150 150 1 31 125 197 0 142 146 118 0 +-4336808689942015e-34 0 -.0
00841656583058827 0 0 -1 -1 0 0 .003563302960940025 31 146 191 0 150 149 125 0 -
-4336808689942015e-34 0 -.000800238000133924 0 0 -1 -1 0 0 .003534577211864275 1
6 150 257 0 ?147 141 151 146 141 141 1 31 149 161 0 151 155 146 0 +0 0 -.0022098
 0 0 1 1 0 0 .003683 16 151 107 0 ?153 150 152 149 0 0 1 31 155 160 0 152 154 14
9 0 +0 0 -.0022098 0 0 1 1 0 0 .0017526 16 152 95 0 ?156 151 138 155 0 0 1 38 15
4 506 0 138 104 155 0 +98 106 160 158 157 159 16 138 374 0 ?40 152 92 154 0 0 1
 31 104 507 0 92 96 154 0 --6096e-7 0 -.00820606927019873 1 0 0 0 0 -1 .00818339
542655125 40 4 160 0 1 4 144434638133723e-20 .000485129013834915 ??-6096e-7 -.00
294308086834387 .00553347684832031 -6096e-7 -.003433692561110035 260853777959229
e-19 -6096e-7 -.003527088832119195 -.001025428526691544 -6096e-7 -.0041082516073
0783 -.00758458651392685 41 1 158 L?-6096e-7 -.00294308086834387 .00553347684832
031 41 1 157 L?-6096e-7 -.00410825160730783 -.00758458651392685 204 16 159 4 4.9
1663070419814 -.00774327684832031 -.00687967684832031 -.00294308086834387 4.8880
9308422478 -.002235885377795925 -.001372285377795922 -.003433692561110035 4.8835
3199949929 -.001184371473308456 -.000320771473308455 -.003527088832119195 4.8596
9839871022 .00537478651392685 .00623838651392685 -.00410825160730783 16 92 359 0
 ?161 138 91 104 0 0 1 17 161 0 165 147 147 50 36 92 0 162 +15 165 189 0 147 17
 0 17 147 0 165 161 161 31 162 150 0 0 +17 36 0 38 33 47 31 161 92 0 39 -17 162
 0 143 136 39 50 147 150 0 0 -15 143 208 0 145 163 0 17 136 0 143 145 162 45 47
 164 0 144 +17 39 0 143 162 145 31 33 37 0 147 +16 37 275 0 ?39 75 164 167 0 0 1
 16 164 269 0 ?136 37 127 129 0 0 1 38 167 277 0 37 129 82 0 +20 106 170 169 169
 166 38 129 271 0 164 123 167 0 +20 106 168 171 171 172 31 82 287 0 75 167 21 0
 +0 0 -.0013462 0 0 1 1 0 0 .00360744479017901 54 255 20 213 0 174 115 6 173 +-4
336808689942015e-34 0 -.000846084094790408 0 0 -1 .003512696270276965 508e-7 -1
 0 0 40 20 170 0 1 20 298547657652797e-20 .34279554807781 ??-6096e-7 -.003507164
3063921 -.000826935425959069 -6096e-7 -.00349806883749025 -.000812474049838093 -
6096e-7 -.00348471739833464 -.000801827381571393 -6096e-7 -.00346844707180405 -.
000796072248494986 -6096e-7 -.003450967037301855 -.000795966911332824 -6096e-7 -
.00343434010113267 -.00080167838345211 -6096e-7 -.003420629381250575 -.000812565
09651502 -6096e-7 -.00341148509673961 -.000827236598253105 -6096e-7 -.0034078510
3726521 -.000843867251160416 -6096e-7 -.00340994503685907 -.000860571814253107 -
6096e-7 -.00341742288083257 -.000875623232889242 -6096e-7 -.00342951484050824 -.
000887494908460147 -6096e-7 -.00344503920590641 -.000894876984892826 -6096e-7 -.
0034623678147897 -.000896799732868811 -6096e-7 -.003479494727259865 -.0008928686
17584328 -6096e-7 -.003494307562172405 -.000883476551551034 -6096e-7 -.003504998
654255975 -.000869809752530813 -6096e-7 -.003510401746136965 -.00085358960106899
3 -6096e-7 -.00351008124635226 -.000836705214324314 -6096e-7 -.00350716430639215
5 -.000826935425959058 41 1 169 H?-6096e-7 -.003507164306392155 -.00082693542595
9058 204 80 166 4 4.88448524707402 -.386492861920683 -.000519264574040931 -.0035
071643063921 4.88492390491164 -.722970579578067 -.000533725950161908 -.003498068
83749025 4.8855718454583 -1.057631498106208 -.000544372618428607 -.0034847173983
3464 4.88636798076104 -1.394415364797528 -.000550127751505014 -.0034684470718040
5 4.88723142234192 -1.734939497288325 -.000550233088667176 -.003450967037301855
 4.88806063290988 -2.07795474887526 -.00054452161654789 -.00343434010113267 4.88
875028585054 -2.42100973600872 -.00053363490348498 -.003420629381250575 4.889213
23225878 -2.76149224724553 -.000518963401746895 -.00341148509673961 4.8893978817
9008 -3.09794013715829 -.000502332748839584 -.00340785103726521 4.88929143739468
 2.852386613321935 -.000485628185746893 -.00340994503685907 4.88891234753976 2.5
21047090079235 -.000470576767110758 -.00341742288083257 4.88830273526219 2.18856
398379644 -.000458705091539853 -.00342951484050824 4.88752616206244 1.8528352875
74445 -.000451323015107174 -.00344503920590641 4.88666731193233 1.51315731938067
 -.000449400267131189 -.0034623678147897 4.88582661258703 1.170524673154446 -.00
0453331382415672 -.003479494727259865 4.88510595209154 .827248978685326 -.000462
723448448966 -.003494307562172405 4.88458949208169 .485940858247405 -.0004763902
47469187 -.003504998654255975 4.88432964373631 .1482890600016872 -.0004926103989
31008 -.003510401746136965 4.88434503571587 -.1856888965545075 -.000509494785675
686 -.00351008124635226 4.88448524707402 -.3864928619204715 -.000519264574040942
 -.003507164306392155 14 174 206 0 ?73 175 179 5 20 +163 163 73 175 23 53 255 11
5 158 0 176 98 20 0 +-4336808689942015e-34 0 -.00820606927019873 .00820606927019
873 0 0 1 1 0 0 141 173 118 180 178 20 141 180 167 177 173 20 141 178 123 173 17
7 20 141 177 129 178 180 20 14 176 134 0 ?185 163 181 5 115 +17 17 185 163 23 14
 185 110 0 ?183 176 182 5 112 -0 0 183 176 23 14 163 278 0 ?176 86 143 5 20 +174
 174 176 86 23 15 181 307 0 34 176 0 14 17 313 0 ?86 0 165 5 115 +176 176 86 0 2
3 13 23 71 0 0 0 0 0 0 9 17 14 86 122 0 ?163 17 184 5 98 -0 0 163 17 23 15 184 1
21 0 153 86 77 17 153 0 184 153 153 0 186 151 0 0 +17 186 0 182 186 186 0 153 15
1 0 0 -15 182 174 0 186 185 190 15 190 109 0 156 185 0 17 156 0 190 156 156 0 18
7 152 0 0 +17 187 0 188 187 187 0 156 152 0 0 -15 188 173 0 187 183 0 14 183 98
 0 ?175 185 189 5 192 -0 0 175 185 23 14 175 86 0 ?174 183 195 5 117 -0 0 174 18
3 23 15 189 589 0 194 183 188 51 255 192 155 0 183 117 112 0 -0 0 -.0026924 0 0
 1 .0017526 1 0 0 50 117 154 0 175 106 192 0 +-8763e-7 0 -.0053848 0 0 1 1 0 0 5
0 112 156 0 185 192 98 0 +-.0027178 0 -.0022098 0 0 1 1 0 0 17 194 0 189 194 194
 0 191 25 0 0 +17 191 0 193 191 191 0 194 25 0 0 -16 25 588 0 ?194 10 79 21 0 0
 1 16 79 298 0 ?55 25 75 82 75 75 1 31 21 591 0 25 82 7 0 +0 0 -.00495585761938
 0 0 1 1 0 0 .0017526 17 55 0 66 68 70 49 74 79 0 76 +15 193 608 0 191 19 0 14 1
9 606 0 ?0 85 199 5 6 +0 0 0 85 23 15 199 607 0 200 19 193 17 200 0 199 200 200
 0 24 10 0 0 -17 24 0 195 24 24 0 200 10 0 0 +15 195 595 0 24 175 0 17 34 0 181
 148 148 59 27 35 0 197 -17 148 0 181 34 34 11 197 141 0 0 +17 197 0 179 81 32 5
9 148 141 0 0 -15 179 264 0 81 174 0 17 81 0 179 93 197 54 28 127 0 87 -17 32 0
 179 197 93 11 26 121 0 148 -17 93 0 179 32 81 58 87 95 0 0 -17 26 0 29 63 27 58
 32 121 0 83 +16 121 261 0 ?26 127 95 118 0 0 1 16 127 263 0 ?28 164 121 123 0 0
 1 17 28 0 29 27 60 59 81 127 0 34 +17 83 0 77 87 74 58 63 89 0 93 +14 73 489 0
 ?116 174 66 5 111 +0 0 116 174 23 14 116 473 0 ?85 73 38 5 106 +0 0 85 73 23 40
 20 168 0 1 20 298568532096639e-20 .3428057055010375 ??-6096e-7 .003413577692528
575 -.000822731551738879 -6096e-7 .003424014474983195 -.000809113228753085 -6096
e-7 .00343835207614421 -.000799703103892024 -6096e-7 .003455165187286545 -.00079
5455276040377 -6096e-7 .00347263282835642 -.000796985295829535 -6096e-7 .0034886
40259793385 -.00080423939532732 -6096e-7 .003501204325442245 -.00081633913722120
5 -6096e-7 .00350886915945415 -.00083173896577129 -6096e-7 .003510905476514395 -
.000848577133765934 -6096e-7 .003507259596640425 -.000865000432058784 -6096e-7 .
00349839831710295 -.000879322646198808 -6096e-7 .003485212332394055 -.0008900625
13387098 -6096e-7 .003469013509639485 -.000895993289952713 -6096e-7 .00345154154
4693385 -.000896291710486974 -6096e-7 .003434852486854265 -.000890766396722496 -
6096e-7 .003421015982407715 -.000880031634495939 -6096e-7 .00341170184689578 -.0
00865457112310141 -6096e-7 .00340787900819132 -.000848860497978385 -6096e-7 .003
409787042619645 -.000832129727171899 -6096e-7 .003413577692528575 -.000822731551
738878 41 1 171 H?-6096e-7 .003413577692528575 -.000822731551738878 204 80 172 4
 1.394078228565066 -2.663940103072295 -.000523468448261122 .003413577692528575 1
.394605790177446 -2.32652360736139 -.000537086771246915 .003424014474983195 1.39
532546929049 -1.99098587938765 -.000546496896107976 .00343835207614421 1.3961620
29229834 -1.652913363248805 -.000550744723959624 .003455165187286545 1.397022834
205846 -1.31127057938061 -.000549214704170465 .00347263282835642 1.3978043360594
 -.967931374751135 -.00054196060467268 .003488640259793385 1.398412870962646 -.6
25534514410878 -.000529860862778796 .003501204325442245 1.39878203639577 -.28627
87928285905 -.00051446103422871 .00350886915945415 1.398879849546066 .0490952907
934474 -.000497622866234066 .003510905476514395 1.398704644090552 .3815601180330
92 -.000481199567941216 .003507259596640425 1.39827733111123 .713259511303721 -.
000466877353801192 .00349839831710295 1.397637566669138 1.04658087594731 -.00045
6137486612902 .003485212332394055 1.39684516492248 1.38324890114519 -.0004502067
10047288 .003469013509639485 1.39598239793003 1.723661251813545 -.00044990828951
30265 .003451541544693385 1.39515034395233 2.066628970604425 -.00045543360327750
4 .003434852486854265 1.394454540882924 2.40972707433676 -.000466168365504061 .0
03421015982407715 1.393983076127362 2.750327121352355 -.000480742887689859 .0034
1170184689578 1.393788848072386 3.086911802350935 -.000497339502021615 .00340787
900819132 1.39388584287389 -2.863323000929175 -.000514070272828101 .003409787042
619645 1.394078228565066 -2.6639401030723 -.000523468448261122 .0034135776925285
75 17 47 0 38 36 46 50 136 164 0 161 -40 20 131 0 1 20 298547657652797e-20 .3427
95548077804 ??6096e-7 -.0035071643063921 -.000826935425959069 6096e-7 -.00349806
883749025 -.000812474049838093 6096e-7 -.00348471739833464 -.000801827381571393
 6096e-7 -.00346844707180405 -.000796072248494986 6096e-7 -.003450967037301855 -
.000795966911332824 6096e-7 -.00343434010113267 -.00080167838345211 6096e-7 -.00
3420629381250575 -.00081256509651502 6096e-7 -.00341148509673961 -.0008272365982
53105 6096e-7 -.00340785103726521 -.000843867251160416 6096e-7 -.003409945036859
07 -.000860571814253107 6096e-7 -.00341742288083257 -.000875623232889242 6096e-7
 -.00342951484050824 -.000887494908460147 6096e-7 -.00344503920590641 -.00089487
6984892826 6096e-7 -.0034623678147897 -.000896799732868811 6096e-7 -.00347949472
7259865 -.000892868617584328 6096e-7 -.003494307562172405 -.000883476551551034 6
096e-7 -.003504998654255975 -.000869809752530813 6096e-7 -.003510401746136965 -.
000853589601068993 6096e-7 -.00351008124635226 -.000836705214324314 6096e-7 -.00
3507164306392155 -.000826935425959058 41 1 135 H?6096e-7 -.003507164306392155 -.
000826935425959058 204 80 132 4 4.54029271369536 -.386492861920683 -.00051926457
4040931 -.0035071643063921 4.53985405585774 -.722970579578066 -.0005337259501619
08 -.00349806883749025 4.53920611531108 -1.057631498106208 -.000544372618428607
 -.00348471739833464 4.53840998000834 -1.394415364797528 -.000550127751505014 -.
00346844707180405 4.53754653842746 -1.734939497288325 -.000550233088667176 -.003
450967037301855 4.5367173278595 -2.07795474887526 -.00054452161654789 -.00343434
010113267 4.53602767491884 -2.42100973600872 -.00053363490348498 -.0034206293812
50575 4.5355647285106 -2.761492247245525 -.000518963401746895 -.0034114850967396
1 4.53538007897929 -3.09794013715829 -.000502332748839584 -.00340785103726521 4.
5354865233747 2.852386613321935 -.000485628185746893 -.00340994503685907 4.53586
561322962 2.521047090079235 -.000470576767110758 -.00341742288083257 4.536475225
50719 2.18856398379644 -.000458705091539853 -.00342951484050824 4.53725179870694
 1.852835287574445 -.000451323015107174 -.00344503920590641 4.53811064883705 1.5
13157319380675 -.000449400267131189 -.0034623678147897 4.53895134818235 1.170524
673154446 -.000453331382415672 -.003479494727259865 4.53967200867784 .8272489786
85326 -.000462723448448966 -.003494307562172405 4.54018846868769 .48594085824740
5 -.000476390247469187 -.003504998654255975 4.54044831703307 .1482890600016872 -
.000492610398931008 -.003510401746136965 4.54043292505351 -.1856888965545055 -.0
00509494785675686 -.00351008124635226 4.54029271369536 -.3864928619204695 -.0005
19264574040942 -.003507164306392155 40 20 122 0 1 20 298568532096639e-20 .342805
7055010375 ??6096e-7 .003413577692528575 -.000822731551738879 6096e-7 .003424014
474983195 -.000809113228753085 6096e-7 .00343835207614421 -.000799703103892024 6
096e-7 .003455165187286545 -.000795455276040377 6096e-7 .00347263282835642 -.000
796985295829535 6096e-7 .003488640259793385 -.00080423939532732 6096e-7 .0035012
04325442245 -.000816339137221205 6096e-7 .00350886915945415 -.00083173896577129
 6096e-7 .003510905476514395 -.000848577133765934 6096e-7 .003507259596640425 -.
000865000432058784 6096e-7 .00349839831710295 -.000879322646198808 6096e-7 .0034
85212332394055 -.000890062513387098 6096e-7 .003469013509639485 -.00089599328995
2713 6096e-7 .003451541544693385 -.000896291710486974 6096e-7 .00343485248685426
5 -.000890766396722496 6096e-7 .003421015982407715 -.000880031634495939 6096e-7
 .00341170184689578 -.000865457112310141 6096e-7 .00340787900819132 -.0008488604
97978385 6096e-7 .003409787042619645 -.000832129727171899 6096e-7 .0034135776925
28575 -.000822731551738878 41 1 130 H?6096e-7 .003413577692528575 -.000822731551
738878 204 80 126 4 1.747514425024725 -2.663940103072295 -.000523468448261122 .0
03413577692528575 1.746986863412345 -2.32652360736139 -.000537086771246915 .0034
24014474983195 1.746267184299305 -1.99098587938765 -.000546496896107976 .0034383
5207614421 1.74543062435996 -1.652913363248805 -.000550744723959624 .00345516518
7286545 1.744569819383945 -1.31127057938061 -.000549214704170465 .00347263282835
642 1.74378831753039 -.967931374751135 -.00054196060467268 .003488640259793385 1
.74317978262715 -.625534514410878 -.000529860862778796 .003501204325442245 1.742
810617194025 -.2862787928285885 -.00051446103422871 .00350886915945415 1.7427128
04043725 .0490952907934453 -.000497622866234066 .003510905476514395 1.7428880094
9924 .381560118033092 -.000481199567941216 .003507259596640425 1.743315322478565
 .713259511303721 -.000466877353801192 .00349839831710295 1.743955086920655 1.04
658087594731 -.000456137486612902 .003485212332394055 1.744747488667315 1.383248
90114519 -.000450206710047288 .003469013509639485 1.745610255659765 1.7236612518
13545 -.0004499082895130265 .003451541544693385 1.746442309637465 2.066628970604
425 -.000455433603277504 .003434852486854265 1.74713811270687 2.40972707433676 -
.000466168365504061 .003421015982407715 1.74760957746243 2.750327121352355 -.000
480742887689859 .00341170184689578 1.747803805517405 3.086911802350935 -.0004973
39502021615 .00340787900819132 1.747706810715905 -2.863323000929175 -.0005140702
72828101 .003409787042619645 1.747514425024725 -2.6639401030723 -.00052346844826
1122 .003413577692528575 141 119 129 198 196 106 141 198 154 203 119 106 141 196
 167 119 203 106 141 203 96 196 198 106 141 114 102 205 201 98 141 205 154 204 1
14 98 141 201 94 114 204 98 141 204 96 201 205 98 40 3 110 0 1 3 199414005023936
e-20 .000555544107934086 ??-6096e-7 .00410825160730783 -.00758458651392685 -6096
e-7 .003527088832119195 -.001025428526691544 -6096e-7 .00294308086834387 .005533
47684832031 41 1 107 L?-6096e-7 .00410825160730783 -.00758458651392685 41 1 108
 L?-6096e-7 .00294308086834387 .00553347684832031 204 12 109 4 1.423486908469368
 .00537478651392685 .00623838651392685 .00410825160730783 1.3996533076803 -.0011
84371473308456 -.0003207714733084555 .003527088832119195 1.366554602981448 -.007
74327684832031 -.00687967684832031 .00294308086834387 19 18 61 0 1 0 9 5 0 S0 74
 4 CI16 index_map_offset0 0 1 dCCZ20 16 4 0 0 202 206 13 2 0 0 0 0 0 0 0 0 0 0 0
 0 0 0 0 0 81 1 202 622 210 1 0 206 0 0 208 81 1 206 623 207 1 202 13 0 0 209 81
 1 13 624 211 1 206 2 0 0 215 80 7 CCCCCDI12 legal_owners0 17 1 lCZ1 211 213 212
 8017 0 0 0 0 0 0 0 0 0 TTTTTTTTTTTTTFTFT3 84 255 40 215 Binding head machine sc
rew #6-32 x 0.12579 255 13 212 SDL/TYSA_NAME80 1 207 211 214 8038 0 0 0 0 0 0 0
 0 0 TTTTTTTTTTTTTFTFT10 98 255 40 209 66 105 110 100 105 110 103 32 104 101 97
 100 32 109 97 99 104 105 110 101 32 115 99 114 101 119 32 35 54 45 51 50 32 120
 32 48 46 49 50 53 79 14 214 SDL/TYSA_UNAME80 1 210 216 220 8040 0 0 0 0 3 5 0 0
 0 TTTFFFFFFFFFFFFFF2 83 255 3 208 .603921568627451 .647058823529412 .6862745098
03922 79 17 220 SDL/TYSA_COLOUR_280 2 12 217 218 8004 0 0 0 0 3 5 0 0 0 FFTFFFFF
FFFFFFFFF2 3 83 1 14 7740 84 6 15 kg/m^379 16 218 SDL/TYSA_DENSITY1 0 
